<?xml version="1.0" standalone="no"?>
<!DOCTYPE svg PUBLIC "-//W3C//DTD SVG 20010904//EN"
 "http://www.w3.org/TR/2001/REC-SVG-20010904/DTD/svg10.dtd">
<svg version="1.0" xmlns="http://www.w3.org/2000/svg"
 width="1649.000000pt" height="1649.000000pt" viewBox="0 0 1649.000000 1649.000000"
 preserveAspectRatio="xMidYMid meet">
<metadata>
Created by potrace 1.14, written by Peter Selinger 2001-2017
</metadata>
<g transform="translate(0.000000,1649.000000) scale(0.100000,-0.100000)"
fill="#000000" stroke="none">
<path d="M8320 15972 c0 -7 -4 -11 -8 -8 -14 9 -58 -55 -54 -76 1 -5 -3 -8
-10 -8 -6 0 -8 -3 -5 -6 3 -4 1 -16 -5 -28 -7 -11 -11 -24 -10 -28 1 -5 -2 -8
-7 -8 -5 0 -8 -8 -7 -17 2 -10 -4 -24 -13 -31 -9 -8 -10 -10 -3 -7 11 6 11 3
0 -14 -7 -12 -16 -21 -21 -21 -4 0 -6 -4 -2 -9 3 -5 0 -15 -7 -23 -7 -7 -14
-20 -16 -28 -2 -8 -8 -17 -13 -18 -5 -2 -7 -8 -3 -13 3 -5 0 -9 -7 -9 -7 0 -9
-3 -6 -6 4 -4 -3 -20 -14 -35 -11 -16 -17 -33 -14 -39 3 -5 1 -10 -4 -10 -6 0
-11 -7 -11 -15 0 -8 -5 -15 -11 -15 -5 0 -7 -4 -4 -10 3 -5 1 -10 -4 -10 -6 0
-11 -8 -11 -19 0 -10 -12 -31 -27 -46 -16 -16 -23 -26 -17 -22 6 3 11 0 11 -8
0 -8 -4 -12 -9 -9 -4 3 -16 -8 -26 -25 -9 -17 -20 -31 -24 -31 -4 0 -5 -7 -2
-15 4 -8 1 -15 -6 -15 -6 0 -8 -4 -5 -10 3 -5 1 -10 -6 -10 -7 0 -9 -3 -6 -7
4 -3 -1 -15 -10 -26 -10 -11 -12 -17 -6 -13 9 5 11 2 7 -8 -3 -9 -10 -16 -16
-16 -5 0 -6 -4 -3 -10 3 -5 1 -10 -4 -10 -6 0 -10 -3 -9 -7 4 -16 -14 -73 -23
-73 -5 0 -8 -3 -8 -7 3 -19 -2 -34 -9 -29 -4 2 -16 -16 -26 -40 -10 -24 -22
-44 -27 -44 -5 0 -9 -9 -9 -20 0 -11 -5 -20 -11 -20 -5 0 -7 -4 -4 -10 3 -5 1
-10 -6 -10 -7 0 -9 -3 -6 -7 4 -3 -1 -15 -10 -26 -13 -15 -14 -18 -3 -12 13 8
13 7 0 -11 -8 -10 -19 -22 -25 -26 -5 -4 -6 -8 -1 -8 4 0 1 -11 -8 -25 -9 -14
-13 -25 -10 -25 4 0 -3 -9 -16 -20 -13 -11 -19 -20 -15 -20 5 0 0 -6 -11 -14
-10 -8 -16 -18 -12 -22 4 -4 1 -12 -7 -18 -14 -10 -75 -163 -77 -193 -1 -7 -5
-13 -9 -13 -4 0 -10 -7 -13 -16 -3 -8 -2 -13 3 -10 8 5 -38 -93 -49 -104 -14
-14 -40 -70 -33 -70 4 0 0 -7 -11 -15 -10 -7 -15 -18 -11 -24 3 -6 1 -11 -4
-11 -6 0 -10 -3 -9 -7 3 -14 -25 -63 -36 -63 -6 0 -5 -4 2 -9 10 -6 10 -10 -3
-21 -8 -7 -15 -19 -15 -26 0 -8 -5 -14 -12 -14 -6 0 -8 -3 -5 -6 4 -4 -2 -19
-13 -34 -11 -16 -20 -33 -20 -39 0 -6 -4 -11 -10 -11 -5 0 -10 -9 -10 -20 0
-11 -4 -20 -10 -20 -5 0 -10 -9 -10 -19 0 -11 -5 -23 -10 -26 -6 -4 -8 -11 -5
-16 4 -5 1 -9 -5 -9 -6 0 -9 -4 -6 -9 7 -10 -16 -61 -27 -61 -5 0 -5 -4 -2
-10 3 -5 2 -10 -4 -10 -6 0 -8 -7 -5 -15 4 -8 1 -15 -5 -15 -6 0 -11 -7 -11
-15 0 -8 -4 -15 -10 -15 -5 0 -12 -11 -16 -25 -3 -14 -10 -25 -16 -25 -5 0 -7
-4 -3 -9 3 -6 -3 -14 -12 -20 -10 -5 -17 -12 -16 -15 3 -12 -10 -46 -18 -46
-5 0 -9 -6 -9 -14 0 -8 -7 -16 -15 -20 -8 -3 -15 -11 -15 -18 0 -9 3 -8 10 2
7 10 10 11 10 2 0 -7 -7 -15 -15 -18 -8 -4 -12 -10 -9 -15 3 -5 0 -9 -6 -9 -6
0 -8 -5 -5 -10 3 -6 -3 -22 -14 -36 -12 -15 -21 -33 -21 -40 0 -8 -5 -14 -12
-14 -6 0 -8 -3 -5 -7 4 -3 -1 -12 -11 -20 -9 -8 -12 -12 -5 -9 6 3 -2 -19 -17
-49 -15 -30 -26 -55 -23 -55 3 0 0 -7 -7 -15 -7 -8 -9 -15 -4 -15 4 0 -1 -7
-12 -16 -10 -8 -13 -13 -6 -9 6 3 12 1 12 -4 0 -6 -5 -11 -10 -11 -6 0 -9 -3
-8 -7 1 -5 -3 -18 -10 -30 -7 -13 -9 -23 -5 -23 4 0 1 -6 -8 -13 -9 -7 -16
-14 -16 -17 1 -14 -37 -80 -45 -80 -5 0 -6 -4 -3 -10 3 -5 1 -10 -4 -10 -6 0
-10 -3 -9 -7 3 -12 -14 -57 -24 -64 -5 -3 -10 -16 -11 -27 -1 -12 -6 -22 -11
-22 -5 0 -6 -3 -3 -7 4 -3 -1 -12 -11 -20 -9 -8 -11 -12 -4 -8 7 3 -2 -15 -20
-42 -18 -26 -36 -50 -40 -51 -5 -2 -6 -8 -2 -13 3 -5 0 -9 -7 -9 -7 0 -9 -3
-6 -6 4 -4 -3 -20 -14 -35 -11 -16 -17 -33 -14 -39 3 -5 1 -10 -5 -10 -6 0 -9
-4 -6 -9 4 -5 1 -11 -4 -13 -11 -3 -18 -26 -19 -61 -1 -11 -6 -15 -12 -11 -7
4 -10 1 -7 -7 3 -8 -3 -25 -13 -38 -10 -13 -16 -27 -13 -32 3 -5 1 -9 -3 -9
-5 0 -17 -17 -28 -37 -10 -21 -28 -48 -39 -60 -11 -13 -17 -26 -14 -29 4 -3
-1 -14 -10 -25 -9 -11 -17 -23 -17 -27 0 -4 -12 -28 -28 -54 -15 -26 -27 -49
-27 -52 0 -3 -14 -29 -31 -58 -17 -29 -33 -61 -35 -72 -2 -11 -9 -23 -16 -28
-7 -4 -9 -8 -4 -8 5 0 3 -7 -4 -15 -7 -8 -9 -15 -5 -15 4 0 2 -7 -5 -15 -7 -8
-9 -15 -4 -15 4 0 -1 -7 -12 -16 -10 -8 -13 -13 -7 -9 9 4 11 1 7 -9 -3 -9 -9
-14 -13 -12 -4 3 -8 -4 -9 -15 -4 -43 -6 -48 -19 -53 -7 -3 -13 -11 -13 -18 0
-9 3 -8 10 2 6 9 10 10 10 3 0 -7 -9 -17 -20 -23 -11 -6 -18 -16 -14 -22 4 -5
1 -14 -5 -18 -7 -4 -13 -15 -15 -24 -1 -10 -8 -21 -15 -25 -7 -5 -12 -10 -12
-12 2 -13 -13 -49 -20 -49 -5 0 -9 -5 -9 -12 0 -6 -8 -21 -17 -32 -17 -20 -17
-20 0 -7 15 12 17 12 11 -3 -3 -9 -10 -16 -16 -16 -5 0 -7 -4 -4 -9 3 -5 -1
-14 -9 -21 -8 -7 -12 -16 -9 -21 3 -5 0 -9 -7 -9 -7 0 -10 -3 -6 -6 3 -4 -1
-13 -9 -21 -8 -9 -13 -22 -10 -30 3 -8 1 -11 -4 -8 -9 6 -14 -8 -11 -27 0 -5
-3 -8 -8 -8 -5 0 -14 -15 -22 -32 -7 -18 -17 -36 -23 -40 -5 -3 -10 -17 -11
-30 -3 -36 -9 -52 -25 -66 -13 -12 -13 -13 0 -7 8 4 6 -1 -4 -9 -13 -10 -15
-16 -7 -16 11 0 11 -3 1 -15 -7 -8 -9 -15 -4 -15 5 -1 -2 -7 -16 -15 -14 -7
-23 -15 -20 -17 3 -2 -6 -21 -19 -43 -14 -22 -24 -43 -23 -47 1 -5 -3 -8 -8
-8 -6 0 -10 -7 -10 -15 0 -8 -5 -15 -11 -15 -5 0 -7 -5 -4 -10 3 -6 -1 -13 -9
-16 -9 -3 -13 -10 -10 -15 3 -5 0 -17 -5 -26 -6 -10 -11 -13 -11 -8 0 6 -9 -9
-21 -32 -12 -24 -25 -43 -30 -43 -4 0 -6 -7 -3 -15 4 -8 1 -15 -6 -15 -6 0 -9
-4 -6 -9 3 -5 -1 -12 -10 -15 -8 -3 -13 -10 -9 -15 3 -5 1 -12 -5 -16 -5 -3
-10 -15 -10 -26 0 -10 -5 -19 -11 -19 -5 0 -7 -4 -4 -10 3 -5 1 -10 -4 -10 -6
0 -10 -3 -9 -7 4 -19 -47 -102 -69 -112 -15 -7 -21 -16 -17 -23 5 -7 2 -9 -8
-5 -15 5 -32 -23 -29 -45 1 -5 -4 -8 -9 -8 -5 0 -9 -3 -9 -7 4 -22 -2 -33 -13
-27 -8 5 -9 2 -5 -9 3 -9 2 -19 -4 -22 -5 -4 -7 -10 -4 -15 3 -4 -2 -13 -10
-20 -12 -10 -13 -16 -3 -28 8 -10 9 -13 2 -9 -11 6 -29 -19 -26 -35 1 -5 -3
-8 -9 -8 -5 0 -7 -4 -4 -10 3 -5 2 -10 -4 -10 -6 0 -7 -7 -4 -17 4 -10 2 -14
-4 -10 -10 7 -28 -19 -25 -35 1 -5 -3 -8 -9 -8 -5 0 -7 -4 -4 -10 3 -5 2 -10
-2 -10 -10 0 -43 -69 -43 -88 0 -7 -5 -12 -11 -12 -5 0 -7 -4 -4 -10 3 -5 2
-10 -4 -10 -6 0 -8 -6 -5 -14 3 -8 0 -17 -5 -21 -6 -3 -9 -11 -6 -16 4 -5 1
-9 -5 -9 -6 0 -9 -4 -5 -9 3 -5 0 -13 -6 -16 -5 -4 -8 -13 -5 -21 3 -8 1 -14
-4 -14 -5 0 -12 -11 -16 -25 -3 -14 -10 -25 -15 -25 -5 0 -9 -7 -9 -15 0 -8
-5 -15 -11 -15 -5 0 -7 -4 -4 -10 3 -5 1 -10 -5 -10 -6 0 -8 -5 -5 -10 3 -6
-1 -13 -9 -16 -9 -3 -14 -10 -11 -14 3 -5 -1 -15 -9 -23 -8 -8 -12 -17 -9 -21
4 -3 1 -6 -6 -6 -7 0 -11 -6 -8 -14 3 -8 -1 -17 -9 -20 -9 -3 -12 -10 -9 -16
3 -5 1 -10 -6 -10 -7 0 -9 -3 -6 -7 4 -3 -5 -21 -19 -40 -14 -18 -22 -33 -18
-33 4 0 -1 -9 -10 -19 -10 -11 -15 -25 -10 -32 4 -7 3 -10 -3 -6 -10 6 -15 0
-24 -28 -1 -5 -8 -16 -15 -23 -7 -7 -10 -20 -7 -29 4 -11 3 -14 -5 -9 -11 6
-13 3 -12 -19 0 -3 -6 -18 -14 -34 -9 -16 -12 -31 -9 -35 4 -3 1 -6 -6 -6 -8
0 -11 -7 -7 -15 3 -8 2 -15 -2 -15 -8 0 -36 -60 -33 -72 0 -5 -4 -8 -11 -8 -6
0 -8 -3 -5 -7 4 -3 -1 -12 -11 -20 -11 -9 -11 -12 -2 -7 8 4 5 -3 -8 -15 -20
-20 -26 -34 -23 -53 0 -5 -3 -8 -9 -8 -5 0 -10 -6 -10 -14 0 -7 -6 -19 -14
-25 -8 -7 -12 -21 -9 -31 3 -11 0 -20 -6 -20 -5 0 -8 -7 -5 -15 4 -8 1 -15 -6
-15 -6 0 -9 -4 -6 -9 3 -4 -3 -18 -14 -31 -10 -12 -16 -29 -13 -37 4 -10 2
-14 -4 -10 -5 3 -20 -16 -33 -43 -13 -28 -27 -50 -31 -50 -4 0 -6 -9 -4 -20 2
-11 0 -18 -4 -15 -8 5 -26 -41 -23 -57 1 -5 -2 -8 -8 -8 -5 0 -10 -14 -10 -31
0 -17 -4 -28 -10 -24 -9 6 -14 -8 -11 -27 0 -5 -4 -8 -10 -8 -5 0 -8 -3 -6 -7
3 -5 -4 -24 -14 -43 -11 -19 -19 -30 -19 -25 0 6 -5 2 -11 -8 -5 -9 -8 -21 -5
-26 3 -5 -1 -12 -10 -15 -8 -3 -12 -10 -9 -16 3 -5 1 -10 -4 -10 -6 0 -11 -7
-11 -15 0 -8 -5 -15 -11 -15 -5 0 -7 -4 -4 -10 3 -5 1 -10 -5 -10 -6 0 -8 -4
-5 -10 3 -5 1 -10 -5 -10 -6 0 -8 -5 -4 -12 4 -6 1 -16 -7 -22 -8 -6 -23 -29
-34 -51 -11 -22 -25 -44 -32 -48 -7 -4 -13 -15 -13 -22 0 -8 -4 -15 -10 -15
-5 0 -10 -9 -10 -20 0 -11 -5 -20 -10 -20 -6 0 -9 -3 -9 -7 4 -22 -2 -33 -13
-27 -8 5 -9 2 -5 -9 3 -10 2 -17 -3 -17 -5 0 -7 -6 -4 -13 3 -8 -2 -20 -10
-27 -9 -7 -13 -16 -10 -21 3 -5 0 -9 -6 -9 -6 0 -9 -4 -5 -9 3 -5 1 -12 -5
-16 -6 -4 -8 -11 -5 -16 4 -5 1 -9 -5 -9 -7 0 -9 -7 -6 -16 3 -8 2 -12 -4 -9
-6 3 -10 -3 -10 -14 0 -11 -10 -30 -22 -42 -13 -12 -16 -19 -8 -15 9 5 9 2 -2
-7 -10 -8 -15 -17 -11 -20 3 -4 1 -7 -6 -7 -7 0 -10 -4 -6 -9 3 -6 -5 -20 -17
-32 -13 -12 -16 -18 -8 -14 10 6 9 2 -3 -13 -11 -11 -16 -26 -12 -31 3 -6 1
-11 -5 -11 -7 0 -10 -7 -6 -15 3 -8 1 -15 -5 -15 -6 0 -7 -4 -4 -10 3 -6 1
-10 -5 -10 -6 0 -9 -4 -6 -9 3 -5 -1 -14 -9 -21 -8 -7 -12 -16 -9 -21 3 -5 0
-9 -6 -9 -6 0 -9 -4 -6 -9 3 -5 -1 -12 -10 -15 -8 -3 -12 -10 -9 -16 3 -5 1
-10 -5 -10 -6 0 -8 -5 -5 -10 3 -6 2 -10 -3 -10 -6 0 -13 -11 -16 -25 -4 -14
-11 -23 -17 -20 -5 4 -9 3 -8 -2 1 -4 0 -11 -1 -15 -1 -5 -4 -12 -5 -18 -1 -5
-4 -12 -5 -15 -1 -3 -3 -8 -4 -12 -1 -5 -7 -18 -14 -29 -6 -12 -8 -24 -5 -28
3 -3 2 -6 -3 -6 -5 0 -10 -10 -11 -22 -1 -11 -7 -24 -13 -28 -6 -4 -12 -17
-13 -28 -1 -12 -7 -22 -15 -22 -7 0 -11 -4 -8 -8 3 -5 -4 -16 -15 -25 -10 -9
-19 -13 -20 -9 0 4 -5 -4 -11 -18 -6 -14 -10 -29 -9 -34 1 -4 -2 -13 -7 -20
-5 -6 -8 -21 -7 -33 1 -13 -2 -23 -7 -23 -5 0 -7 -4 -3 -9 3 -5 1 -12 -5 -16
-6 -4 -8 -11 -5 -16 4 -5 1 -9 -5 -9 -6 0 -8 -5 -5 -11 4 -5 -1 -19 -11 -30
-9 -10 -14 -19 -9 -19 4 0 2 -6 -4 -13 -6 -8 -8 -17 -4 -20 3 -4 2 -7 -4 -7
-5 0 -18 -18 -28 -39 -10 -22 -24 -42 -32 -45 -8 -3 -11 -11 -8 -17 4 -5 -1
-19 -11 -30 -9 -10 -13 -19 -9 -19 4 0 0 -9 -10 -20 -10 -11 -14 -20 -10 -20
5 0 4 -5 -3 -12 -7 -7 -12 -20 -12 -30 0 -10 -4 -18 -10 -18 -5 0 -10 -9 -10
-20 0 -11 -4 -20 -10 -20 -5 0 -10 -7 -10 -15 0 -8 -4 -15 -10 -15 -5 0 -10
-7 -10 -15 0 -8 -4 -15 -10 -15 -5 0 -10 -6 -10 -12 0 -7 -9 -24 -20 -38 -11
-14 -20 -33 -20 -42 0 -10 -4 -18 -10 -18 -5 0 -6 -7 -3 -17 4 -10 2 -14 -4
-10 -15 10 -24 -18 -10 -32 8 -8 6 -11 -8 -11 -10 0 -15 -3 -12 -6 3 -4 2 -16
-4 -27 -8 -14 -8 -18 0 -13 6 4 11 3 11 -2 0 -6 -7 -13 -16 -16 -8 -3 -12 -10
-9 -16 3 -5 2 -10 -3 -10 -6 0 -13 -7 -16 -16 -4 -10 -2 -13 7 -9 6 4 4 0 -5
-8 -10 -8 -15 -17 -11 -20 3 -4 1 -7 -5 -7 -6 0 -9 -7 -6 -15 4 -8 2 -15 -4
-15 -8 0 -26 -43 -19 -46 1 0 -6 -9 -17 -19 -11 -12 -14 -21 -8 -23 7 -2 4
-12 -8 -24 -11 -12 -17 -25 -14 -29 2 -4 0 -10 -6 -14 -6 -4 -8 -11 -5 -16 4
-5 1 -9 -4 -9 -6 0 -11 -11 -11 -25 0 -14 -4 -25 -9 -25 -6 0 -8 -9 -6 -20 2
-11 -1 -19 -8 -17 -7 1 -11 -4 -9 -11 1 -6 -2 -12 -8 -12 -6 0 -9 -3 -9 -7 3
-20 -2 -34 -11 -28 -5 3 -10 -2 -10 -11 0 -10 -3 -14 -6 -11 -10 9 -46 -41
-39 -53 4 -6 1 -9 -7 -8 -7 2 -12 -3 -10 -9 1 -7 -3 -13 -8 -13 -7 0 -7 -7 1
-21 8 -15 8 -19 0 -15 -10 6 -15 -6 -12 -26 0 -5 -3 -8 -9 -8 -6 0 -9 -3 -8
-7 1 -5 -3 -18 -10 -29 -6 -12 -8 -24 -5 -28 3 -3 1 -6 -6 -6 -7 0 -10 -4 -7
-9 3 -5 -1 -14 -9 -21 -8 -7 -15 -17 -15 -22 0 -6 -10 -24 -22 -41 -13 -18
-16 -27 -7 -22 7 4 4 -2 -9 -14 -12 -12 -20 -26 -17 -32 4 -5 1 -9 -4 -9 -6 0
-10 -3 -10 -7 4 -22 -2 -33 -13 -27 -8 5 -9 2 -5 -9 3 -10 2 -17 -3 -17 -4 0
-11 -14 -15 -30 -4 -17 -11 -30 -16 -30 -6 0 -7 -4 -4 -10 3 -5 1 -10 -5 -10
-7 0 -9 -7 -6 -15 3 -9 -1 -18 -9 -21 -8 -4 -12 -10 -9 -15 3 -5 0 -9 -6 -9
-6 0 -8 -4 -5 -10 3 -5 1 -10 -4 -10 -6 0 -10 -3 -9 -7 4 -14 -13 -53 -23 -53
-5 0 -8 -3 -7 -7 1 -5 -3 -18 -10 -31 -7 -12 -10 -22 -6 -22 4 0 0 -8 -9 -18
-10 -10 -14 -22 -10 -25 3 -4 0 -7 -7 -7 -7 0 -11 -3 -7 -6 3 -4 0 -19 -9 -35
-8 -16 -11 -29 -7 -29 4 0 -1 -6 -12 -13 -10 -8 -15 -19 -11 -25 4 -7 2 -12
-5 -12 -7 0 -10 -3 -6 -6 3 -3 -2 -15 -12 -25 -10 -11 -24 -32 -32 -47 -8 -15
-17 -29 -20 -32 -4 -3 -9 -14 -11 -25 -1 -11 -7 -23 -12 -27 -5 -3 -10 -18
-12 -34 -2 -15 -9 -31 -16 -35 -11 -7 -11 -9 0 -9 10 0 9 -4 -2 -16 -9 -8 -14
-20 -11 -25 4 -5 1 -9 -4 -9 -6 0 -10 -4 -9 -9 2 -5 -9 -22 -24 -39 -14 -17
-24 -33 -21 -36 3 -3 -2 -8 -11 -12 -9 -3 -14 -10 -11 -14 3 -4 -3 -11 -12
-14 -15 -6 -15 -8 -3 -16 12 -8 12 -10 -2 -15 -10 -4 -14 -14 -11 -26 3 -10 1
-19 -3 -19 -7 0 -35 -49 -40 -70 -5 -22 -18 -39 -27 -33 -5 3 -7 1 -3 -5 3 -6
2 -13 -4 -17 -6 -4 -7 -11 -4 -17 4 -6 2 -8 -4 -4 -6 3 -16 -7 -24 -24 -7 -16
-16 -30 -20 -30 -5 0 -8 -7 -8 -15 0 -8 -4 -15 -9 -15 -5 0 -12 -7 -15 -16 -4
-10 -2 -13 7 -9 6 4 4 0 -5 -8 -10 -8 -15 -17 -11 -20 3 -4 1 -7 -6 -7 -7 0
-11 -6 -8 -14 3 -7 -1 -23 -9 -35 -8 -11 -12 -21 -8 -21 3 0 1 -7 -6 -15 -6
-8 -9 -18 -6 -23 3 -6 -1 -15 -9 -22 -8 -7 -15 -19 -15 -27 0 -8 -9 -27 -19
-41 -10 -15 -18 -30 -17 -34 0 -4 -7 -16 -16 -28 -10 -11 -15 -20 -13 -20 3 0
-1 -10 -10 -23 -8 -13 -12 -27 -8 -30 3 -4 1 -7 -6 -7 -7 0 -9 -4 -6 -10 3 -5
1 -10 -4 -10 -6 0 -11 -5 -11 -11 0 -5 5 -7 11 -3 7 4 2 -6 -10 -22 -12 -16
-24 -43 -27 -59 -3 -17 -9 -31 -15 -33 -5 -2 -9 -12 -9 -23 0 -10 -5 -19 -11
-19 -5 0 -8 -4 -5 -9 3 -5 -1 -12 -10 -15 -8 -3 -12 -10 -9 -16 3 -5 1 -10 -4
-10 -6 0 -11 -3 -10 -7 2 -16 -14 -53 -22 -53 -5 0 -8 -3 -8 -7 1 -8 0 -12 -6
-30 -2 -5 -6 -18 -10 -31 -4 -12 -12 -22 -17 -22 -5 0 -7 -4 -3 -9 3 -5 1 -12
-5 -16 -6 -4 -8 -11 -5 -16 4 -5 1 -9 -5 -9 -6 0 -8 -5 -5 -10 3 -5 1 -10 -5
-10 -6 0 -8 -4 -5 -10 3 -5 1 -10 -6 -10 -7 0 -9 -3 -6 -7 4 -3 0 -15 -10 -25
-9 -10 -13 -18 -9 -18 3 0 -7 -18 -23 -41 -17 -22 -35 -56 -41 -75 -7 -19 -15
-32 -20 -29 -8 5 -25 -23 -22 -37 1 -5 -3 -8 -9 -8 -5 0 -8 -4 -5 -9 3 -5 -1
-14 -9 -21 -8 -7 -15 -19 -15 -26 0 -8 -5 -14 -11 -14 -5 0 -8 -4 -5 -9 3 -5
-1 -12 -9 -15 -8 -3 -15 -9 -14 -13 2 -16 -14 -53 -23 -53 -5 0 -7 -4 -3 -9 3
-5 0 -13 -6 -16 -5 -4 -8 -14 -5 -22 3 -8 1 -11 -4 -8 -10 6 -14 -7 -11 -34 2
-7 -3 -10 -9 -6 -7 4 -10 1 -9 -6 1 -8 -4 -27 -11 -44 -7 -16 -13 -33 -12 -38
1 -4 -3 -7 -9 -7 -5 0 -8 -4 -5 -8 3 -5 -9 -26 -27 -47 -18 -22 -26 -36 -20
-32 9 6 11 3 7 -7 -3 -9 -10 -13 -15 -11 -5 3 -11 -6 -15 -20 -3 -14 -11 -25
-16 -25 -6 0 -8 -7 -4 -15 3 -8 2 -15 -3 -15 -9 0 -26 -48 -23 -62 1 -5 -3 -8
-9 -8 -5 0 -7 -5 -4 -10 3 -6 0 -12 -7 -15 -7 -3 -14 -17 -15 -31 0 -15 -5
-29 -10 -33 -5 -3 -15 -21 -22 -38 -8 -18 -18 -33 -23 -33 -5 0 -7 -4 -4 -8 3
-5 -7 -26 -22 -48 -14 -21 -25 -40 -24 -41 6 -9 -12 -61 -20 -57 -6 4 -8 -2
-3 -15 3 -11 2 -21 -3 -21 -8 0 -21 -32 -23 -57 0 -5 -8 -17 -17 -27 -9 -11
-11 -16 -5 -12 9 5 11 2 7 -8 -3 -8 -12 -17 -20 -20 -8 -3 -11 -12 -7 -22 4
-12 3 -15 -5 -10 -7 4 -12 1 -12 -8 0 -9 -5 -16 -11 -16 -5 0 -7 -4 -4 -10 3
-5 1 -10 -4 -10 -6 0 -11 -9 -11 -20 0 -11 -4 -20 -9 -20 -5 0 -12 -14 -16
-30 -4 -17 -11 -30 -16 -30 -6 0 -7 -4 -4 -10 3 -5 1 -10 -4 -10 -6 0 -11 -9
-11 -21 0 -11 -4 -17 -10 -14 -6 3 -7 -1 -4 -9 3 -9 1 -16 -6 -16 -6 0 -9 -4
-5 -9 3 -5 1 -12 -4 -16 -6 -3 -7 -13 -4 -22 5 -12 3 -14 -7 -8 -10 6 -12 4
-7 -8 3 -9 0 -18 -9 -21 -9 -3 -12 -10 -9 -16 3 -5 1 -10 -5 -10 -6 0 -9 -4
-5 -9 3 -6 -1 -13 -9 -18 -8 -4 -15 -12 -17 -18 -4 -24 -12 -34 -20 -29 -5 3
-9 2 -8 -3 1 -4 -4 -21 -11 -38 -7 -16 -13 -33 -12 -37 1 -5 -2 -8 -8 -8 -5 0
-7 -6 -4 -14 3 -7 -2 -16 -11 -20 -9 -3 -13 -10 -10 -16 3 -5 1 -10 -5 -10 -6
0 -8 -4 -5 -10 3 -5 1 -10 -6 -10 -7 0 -9 -3 -6 -7 4 -3 -5 -22 -20 -41 -15
-20 -21 -32 -15 -28 16 10 15 1 -1 -16 -16 -16 -52 -90 -49 -100 1 -5 -2 -8
-8 -8 -5 0 -7 -7 -4 -15 4 -8 2 -15 -4 -15 -8 0 -21 -32 -23 -57 0 -5 -8 -17
-17 -27 -13 -15 -13 -17 -2 -11 12 7 13 6 3 -7 -7 -8 -10 -18 -6 -21 3 -4 -1
-7 -10 -7 -11 0 -14 -5 -10 -17 4 -11 3 -14 -5 -9 -11 7 -16 -7 -15 -41 1 -7
-3 -10 -8 -7 -5 2 -11 -7 -15 -21 -3 -14 -10 -25 -16 -25 -5 0 -6 -5 -3 -10 3
-6 1 -10 -5 -10 -6 0 -8 -4 -5 -10 3 -5 2 -10 -4 -10 -6 0 -7 -7 -4 -17 5 -12
3 -14 -7 -8 -8 5 -11 4 -7 -2 7 -11 -17 -86 -25 -78 -3 3 -9 -6 -12 -21 -4
-15 -15 -34 -24 -42 -11 -8 -12 -11 -2 -6 8 5 0 -9 -18 -31 -17 -22 -32 -45
-32 -52 0 -7 -4 -13 -9 -13 -10 0 -21 -27 -20 -44 0 -5 -5 -12 -12 -17 -7 -4
-14 -15 -15 -24 -1 -9 -10 -25 -18 -34 -9 -10 -13 -21 -9 -24 3 -4 1 -7 -6 -7
-7 0 -9 -5 -6 -10 3 -6 -1 -17 -9 -25 -8 -9 -12 -23 -9 -32 5 -12 3 -14 -7 -8
-10 6 -12 4 -7 -8 4 -10 1 -17 -5 -17 -6 0 -9 -3 -6 -6 4 -3 0 -21 -8 -39 -8
-20 -10 -36 -5 -40 5 -3 12 -1 15 4 5 8 89 9 121 1 6 -1 12 -1 15 0 17 6 40 7
40 1 0 -4 9 -7 20 -7 11 0 20 4 20 8 0 4 18 1 40 -7 22 -8 40 -10 40 -5 0 5
13 5 30 0 21 -6 30 -5 30 3 0 7 4 6 10 -3 8 -12 10 -12 10 -1 0 8 3 11 7 8 3
-4 12 -2 20 4 7 6 13 7 13 2 0 -5 9 -9 20 -9 11 0 20 4 20 8 0 5 8 4 19 -1 10
-6 21 -7 25 -4 9 10 36 13 36 4 0 -4 9 -7 20 -7 11 0 20 4 20 7 0 4 14 4 30
-1 18 -5 30 -5 30 1 0 5 5 9 11 9 5 0 7 -6 3 -13 -5 -8 -2 -8 9 2 12 9 17 10
17 2 0 -8 5 -9 19 -1 14 7 21 6 24 -3 3 -9 7 -9 20 2 12 9 17 10 17 2 0 -8 5
-9 19 -1 14 7 21 6 24 -3 3 -9 7 -9 20 2 12 9 17 10 17 2 0 -9 5 -9 20 -1 15
8 20 8 20 -2 0 -9 3 -9 10 2 9 13 10 13 10 0 1 -11 6 -9 19 7 10 12 21 19 25
16 3 -4 6 0 6 9 0 8 6 15 13 15 6 0 23 3 37 7 14 4 20 4 13 -1 -13 -9 710 -9
725 1 6 3 13 2 17 -4 4 -6 11 -8 16 -5 5 4 9 1 9 -5 0 -8 6 -8 20 0 15 8 20 8
20 -1 0 -8 4 -8 15 1 9 7 18 10 22 6 3 -3 0 -6 -7 -6 -7 0 -10 -3 -7 -6 4 -4
13 -1 22 6 9 7 15 8 15 2 0 -11 25 -10 36 1 4 3 15 2 25 -4 11 -5 19 -6 19 -1
0 4 9 8 20 8 11 0 20 -5 20 -11 0 -5 5 -3 10 5 7 11 10 11 10 2 0 -10 5 -10
20 -2 15 8 20 8 20 -1 0 -8 4 -8 15 1 9 7 18 10 22 6 3 -3 0 -6 -7 -6 -7 0
-10 -3 -7 -6 4 -4 13 -1 22 6 9 7 15 8 15 2 0 -11 25 -10 36 1 4 3 15 2 25 -4
11 -5 19 -6 19 -1 0 4 9 8 20 8 11 0 20 -5 20 -11 0 -5 5 -3 10 5 7 11 10 11
10 2 0 -10 5 -10 20 -2 15 8 20 8 20 -1 0 -8 4 -8 15 1 9 7 18 10 22 6 3 -3 0
-6 -7 -6 -7 0 -10 -3 -7 -6 4 -4 13 -1 22 6 9 7 15 8 15 2 0 -11 25 -10 36 1
4 3 15 2 25 -4 11 -5 19 -6 19 -1 0 4 9 8 20 8 11 0 20 -5 20 -11 0 -5 5 -3
10 5 7 11 10 11 10 2 0 -10 5 -10 20 -2 15 8 20 8 20 -1 0 -8 5 -7 17 2 11 10
14 10 9 2 -4 -7 -2 -13 3 -13 6 0 11 4 11 9 0 6 12 6 30 1 20 -6 30 -5 30 2 0
7 5 6 14 -1 10 -8 16 -9 21 -1 4 7 12 7 26 0 14 -8 19 -7 19 2 0 9 3 9 10 -2
6 -9 10 -10 10 -3 0 8 9 9 30 3 17 -5 30 -5 30 0 0 4 8 7 18 6 9 -2 20 2 24 8
5 7 8 6 8 -3 0 -11 4 -9 15 5 8 10 15 14 15 7 0 -8 9 -7 29 5 22 12 27 20 19
29 -6 8 -7 13 -1 13 5 0 15 11 21 25 9 19 9 25 -1 25 -8 0 -7 4 3 10 8 5 16
13 16 17 6 31 19 53 32 53 8 0 13 3 9 6 -3 4 11 21 31 38 20 18 38 38 40 46 2
8 13 25 24 37 12 13 19 26 15 29 -3 3 3 15 13 27 11 11 17 24 14 29 -3 4 0 8
6 8 6 0 8 5 5 10 -3 6 1 10 10 10 9 0 13 4 10 10 -3 5 -1 10 5 10 6 0 8 4 5
10 -3 5 -1 10 5 10 6 0 9 4 6 9 -3 5 1 14 9 21 8 7 13 16 10 20 -3 5 -1 11 4
15 5 3 8 14 6 25 -2 11 0 20 5 20 4 0 7 11 5 25 -1 14 2 25 8 25 6 0 7 3 4 7
-4 3 -2 12 4 20 9 9 8 13 0 13 -8 0 -9 5 -1 19 7 14 6 21 -3 24 -9 4 -9 6 1 6
7 1 10 6 7 11 -3 6 -1 10 5 10 6 0 8 5 5 10 -4 6 -1 18 6 26 6 8 9 17 5 21 -3
3 3 12 14 20 11 8 20 21 20 30 0 9 2 14 5 11 7 -7 85 69 85 83 0 6 9 22 20 36
11 14 17 29 14 34 -3 5 0 9 6 9 7 0 10 7 6 15 -3 8 -2 15 3 15 5 0 12 11 15
25 4 14 11 25 16 25 6 0 10 7 10 15 0 9 7 18 15 21 8 4 12 10 9 15 -3 5 0 9 6
9 6 0 9 4 5 9 -3 5 2 17 11 25 8 9 12 16 8 16 -3 0 -1 7 6 15 7 8 9 15 5 15
-5 0 0 10 11 22 12 13 13 18 4 13 -13 -8 -13 -7 -1 8 11 14 11 17 0 17 -10 1
-9 4 3 14 14 10 15 15 5 26 -10 10 -9 11 3 5 12 -7 13 -6 4 6 -6 8 -10 21 -9
30 6 35 17 59 25 54 5 -3 11 4 15 15 3 11 13 20 21 20 8 0 13 4 10 8 -3 5 15
21 39 37 25 15 45 30 45 32 0 2 -6 1 -12 -3 -7 -5 2 9 20 29 17 21 32 44 32
52 0 8 5 15 11 15 6 0 8 7 5 16 -3 8 -2 13 3 10 4 -3 14 7 22 22 8 15 17 29
21 32 3 3 8 12 10 20 2 8 9 21 16 29 7 7 11 20 8 28 -4 9 -2 11 6 7 8 -5 9 -2
5 9 -4 10 -1 17 5 17 6 0 8 3 5 7 -4 3 -1 13 6 21 10 13 9 14 -3 7 -13 -8 -13
-6 -1 8 7 9 11 24 7 32 -3 8 -1 15 5 15 6 0 8 4 4 9 -3 5 -1 12 5 16 6 4 8 11
5 16 -4 5 -1 9 6 9 8 0 8 4 -1 15 -9 11 -9 15 -1 15 7 0 9 4 6 10 -3 5 -2 10
3 10 8 0 21 25 26 52 0 4 8 13 16 20 12 11 12 10 0 -7 -14 -18 -14 -19 3 -6 9
7 17 20 17 27 0 8 4 14 9 14 11 0 57 72 53 83 -1 4 4 10 11 13 8 3 13 16 11
29 -1 14 3 23 9 22 7 -1 11 4 10 11 -2 6 2 12 8 12 5 0 8 4 5 9 -3 5 1 15 10
22 14 11 38 58 34 67 0 1 9 12 20 24 11 12 20 30 20 40 0 10 5 18 12 18 6 0 8
3 5 7 -4 3 -2 12 4 20 6 7 8 13 5 13 -4 0 0 10 8 21 8 12 12 28 9 35 -3 8 0
14 7 14 6 0 8 5 5 10 -3 6 -1 10 6 10 7 0 9 3 6 6 -3 4 -2 16 4 27 8 14 8 18
0 13 -12 -8 -4 20 10 40 5 6 5 15 1 19 -4 5 -2 5 5 2 7 -4 21 8 34 30 13 21
27 41 32 44 5 3 8 10 8 15 -1 5 4 16 11 25 7 8 14 22 16 29 2 8 11 20 20 28
12 9 13 12 2 7 -10 -4 -9 -2 2 8 10 8 15 17 11 20 -3 4 -1 7 6 7 7 0 9 5 6 10
-3 6 1 13 9 16 9 3 14 10 11 14 -3 5 3 13 12 19 10 6 14 11 9 11 -5 0 3 9 18
21 14 11 26 27 26 35 0 8 4 14 9 14 5 0 8 8 7 18 -2 9 1 24 5 32 12 24 22 54
21 63 -1 4 2 7 8 7 5 0 7 7 4 15 -4 8 -1 21 5 29 6 7 8 16 4 19 -3 4 -1 7 6 7
7 0 10 4 7 9 -3 5 1 22 9 37 8 16 15 25 15 19 0 -5 16 14 35 42 19 29 35 56
35 61 0 5 8 20 19 33 10 13 17 32 16 41 -2 10 2 16 8 15 7 -1 11 4 9 11 -1 6
3 12 9 12 6 0 9 6 6 13 -3 7 4 19 14 26 11 6 17 16 14 21 -3 6 -1 10 4 10 6 0
11 7 11 15 0 8 5 15 11 15 5 0 7 4 4 10 -3 6 -1 10 5 10 6 0 8 5 5 10 -3 6 -2
10 4 10 6 0 8 7 5 15 -4 8 -1 15 5 15 6 0 11 9 11 20 0 11 5 20 11 20 6 0 9 7
5 15 -3 8 -1 15 5 15 6 0 7 4 4 10 -3 6 -1 10 5 10 6 0 9 4 6 8 -3 5 1 19 8
33 7 13 11 30 8 37 -2 6 1 12 8 12 6 0 8 5 4 11 -3 6 0 15 7 20 11 6 11 9 1 9
-16 0 10 43 51 82 15 15 27 32 27 38 0 5 5 10 11 10 5 0 8 4 5 8 -3 5 4 19 15
31 12 13 22 33 23 46 0 13 4 21 7 19 4 -2 12 3 19 11 10 12 10 15 -1 15 -8 1
-4 6 9 13 12 7 19 16 16 20 -4 4 -2 7 5 7 7 0 9 4 6 10 -3 5 -1 10 5 10 6 0 9
4 6 9 -3 5 1 12 10 15 8 3 13 10 10 15 -3 5 1 14 9 21 8 7 12 16 9 21 -3 5 0
9 6 9 6 0 9 4 5 9 -3 5 1 16 9 24 8 8 13 17 10 19 -2 3 3 21 11 41 8 21 12 37
8 37 -5 0 -2 4 6 9 7 5 15 19 16 32 4 39 5 40 18 33 6 -4 9 -4 5 0 -9 11 12
67 23 60 5 -3 9 2 9 10 0 9 4 16 8 16 4 0 9 10 9 22 1 13 7 24 13 26 5 2 10
12 10 23 0 10 5 19 12 19 6 0 8 3 5 6 -3 4 -1 16 5 28 7 11 11 24 10 29 -1 4
2 7 7 7 10 0 27 39 23 53 -1 4 2 7 8 7 5 0 10 9 10 20 0 11 4 20 8 20 7 0 66
106 67 120 0 3 5 12 10 20 9 15 11 20 13 53 1 11 7 15 14 11 8 -5 9 0 5 15 -3
14 0 24 9 28 8 3 11 9 8 14 -3 5 0 9 6 9 6 0 9 4 6 8 -3 5 2 22 10 38 9 16 15
30 15 32 -4 11 1 22 8 20 5 -2 9 1 9 5 1 5 12 17 27 28 14 12 23 25 20 30 -4
5 -2 9 4 9 6 0 13 11 17 25 3 14 11 22 17 18 6 -4 8 0 4 10 -3 10 -2 17 4 17
6 0 7 5 4 10 -3 6 -1 10 5 10 6 0 8 4 5 10 -3 5 -1 10 5 10 6 0 8 4 5 10 -3 5
-1 10 5 10 6 0 8 4 5 10 -3 6 -1 10 5 10 6 0 8 5 5 10 -3 6 -1 10 5 10 6 0 9
4 6 9 -3 5 1 12 10 15 8 3 12 10 9 16 -3 5 -2 10 4 10 6 0 13 11 17 24 3 14
12 27 21 30 8 3 11 11 8 17 -4 5 1 19 12 31 10 11 17 23 16 27 -5 11 9 46 21
53 7 5 7 8 -3 8 -11 0 -11 3 -1 15 6 8 9 19 5 25 -3 5 -1 10 5 10 7 0 9 7 6
16 -3 8 -2 12 4 9 6 -3 10 0 10 8 0 22 31 78 47 84 8 3 12 11 10 18 -3 6 4 17
14 24 11 6 17 16 14 21 -3 5 3 13 12 19 10 6 14 11 10 11 -4 0 4 17 18 37 14
21 25 42 25 46 0 5 9 20 20 34 11 14 17 30 13 36 -3 5 -1 7 4 4 12 -7 27 20
24 41 -1 6 3 12 9 12 6 0 8 5 5 10 -3 6 3 23 14 39 11 15 18 31 14 35 -3 3 -2
6 3 6 5 0 11 10 11 22 1 13 7 24 13 26 5 2 8 8 4 13 -3 5 -1 9 5 9 6 0 8 7 5
15 -4 8 -1 15 5 15 6 0 8 7 4 17 -4 11 -3 14 5 9 8 -5 10 -2 6 8 -3 9 -1 16 6
16 6 0 9 4 5 9 -3 5 1 15 8 23 8 7 12 19 9 27 -3 8 0 11 5 8 6 -4 16 6 24 21
8 15 18 30 22 33 4 3 9 15 10 27 0 11 4 19 8 16 7 -4 44 75 41 89 -1 4 3 7 9
7 5 0 7 5 4 10 -3 6 0 13 9 16 8 3 13 11 10 18 -6 15 30 58 40 48 5 -4 6 0 5
8 -3 13 23 63 41 80 7 7 42 102 43 118 0 6 5 12 10 12 6 0 7 3 4 7 -4 3 1 12
11 20 9 8 11 12 5 8 -7 -3 -13 -1 -13 4 0 6 5 11 11 11 5 0 8 4 4 9 -3 5 -1
12 5 16 6 4 8 11 5 16 -4 5 -1 9 5 9 6 0 8 5 5 10 -3 6 1 10 9 10 9 0 13 6 10
14 -3 8 5 21 18 30 12 9 17 16 10 16 -7 0 -3 9 8 20 12 12 18 25 15 30 -4 6
-2 10 4 10 10 0 27 38 23 53 -1 4 3 7 9 7 5 0 7 5 4 10 -3 6 -1 10 4 10 6 0
11 5 11 11 0 5 -6 7 -12 3 -7 -4 -5 2 5 13 9 11 17 25 17 31 0 7 5 12 10 12 6
0 10 9 10 21 0 11 4 17 10 14 6 -3 7 1 4 9 -4 10 -1 16 7 16 7 0 9 3 6 6 -4 4
2 19 12 33 10 14 26 47 37 73 10 25 22 44 27 41 5 -3 8 1 7 8 -3 21 11 59 22
59 5 0 7 4 4 9 -3 5 1 12 10 15 9 4 15 9 12 12 -7 7 55 71 65 66 4 -2 7 4 7
12 0 9 11 18 24 22 17 4 31 23 51 67 15 34 27 65 26 70 0 4 3 7 8 7 10 0 27
39 23 52 -1 4 6 4 15 1 10 -4 14 -2 10 4 -4 6 3 22 14 37 11 14 17 26 12 26
-4 0 0 5 10 11 9 6 15 14 12 20 -4 5 -1 9 5 9 6 0 9 4 5 9 -3 5 -1 12 5 16 6
4 8 11 5 16 -4 5 -2 9 3 9 5 0 9 6 9 13 1 19 37 112 46 115 4 2 7 10 7 18 0 8
5 14 10 14 6 0 10 5 10 11 0 6 7 17 15 26 8 8 13 18 10 23 -3 4 2 11 11 14 8
3 12 10 9 16 -3 5 -1 10 5 10 6 0 8 5 5 10 -3 6 -1 10 4 10 6 0 11 3 10 8 -2
15 14 52 23 52 5 0 7 4 3 9 -3 6 3 15 12 21 12 7 14 13 6 16 -11 5 -3 20 35
59 6 8 12 21 12 29 0 9 5 16 10 16 6 0 10 9 10 20 0 11 5 20 11 20 5 0 8 4 5
9 -3 5 1 12 10 15 9 4 14 9 11 13 -3 3 0 18 8 33 8 15 11 30 8 34 -4 3 -1 6 6
6 7 0 10 4 6 9 -3 5 -1 12 5 16 5 3 10 14 10 25 0 10 7 20 15 24 8 3 12 12 9
19 -3 8 2 22 11 31 9 9 13 16 8 16 -4 0 0 5 9 10 10 6 15 19 13 30 -2 11 0 18
4 16 7 -5 44 58 45 77 1 4 8 12 16 17 13 9 13 10 0 10 -13 1 -13 2 1 13 9 7
14 17 12 23 -2 7 3 18 11 27 8 8 12 17 9 21 -4 3 -1 6 5 6 7 0 12 8 12 18 0
10 8 27 18 38 37 43 100 165 94 183 -3 9 0 11 8 6 10 -6 12 -4 7 8 -3 10 -2
17 3 17 6 0 9 3 8 8 -4 11 26 72 35 72 5 0 5 5 2 10 -3 6 -1 10 5 10 6 0 8 5
5 10 -3 6 -1 10 5 10 6 0 8 5 5 10 -3 6 1 13 9 16 9 3 14 10 11 14 -3 4 2 11
11 14 8 3 12 10 9 16 -3 5 -1 10 4 10 6 0 10 3 9 8 -1 4 3 17 10 28 6 12 8 24
5 28 -3 3 -1 6 6 6 7 0 9 5 6 10 -3 6 -1 10 5 10 6 0 9 4 5 9 -3 5 -1 12 5 16
6 4 8 11 5 16 -4 5 0 12 9 15 8 3 12 12 9 20 -3 8 0 14 7 14 6 0 9 4 6 9 -3 5
1 11 9 15 8 3 15 15 15 26 0 11 5 20 10 20 6 0 10 9 10 20 0 11 4 20 10 20 5
0 9 3 9 8 -3 19 2 33 11 27 6 -4 10 5 10 19 0 14 6 26 13 26 6 0 3 6 -8 12
-11 6 -23 16 -27 22 -11 16 -10 48 1 42 5 -4 8 2 7 11 -2 10 4 24 13 31 12 10
13 12 1 6 -11 -6 -10 -2 3 13 9 11 14 23 10 27 -4 4 0 12 10 17 9 6 15 14 12
19 -3 5 -1 11 5 15 6 4 8 10 5 15 -3 4 2 11 11 14 8 3 12 10 9 16 -3 5 -1 10
5 10 6 0 8 5 5 10 -3 6 -1 10 5 10 6 0 9 4 5 9 -3 6 2 14 11 19 9 5 16 12 16
15 0 21 12 46 20 41 5 -3 8 0 7 7 -3 16 21 71 35 80 5 4 5 12 2 18 -4 6 -2 11
4 11 6 0 8 5 5 10 -3 6 1 13 9 16 9 3 16 11 16 17 0 6 8 19 18 30 9 11 11 17
5 13 -7 -4 -3 8 10 27 12 19 26 32 31 29 5 -2 7 1 4 9 -2 7 4 22 13 33 10 10
16 23 13 28 -3 4 0 8 6 8 6 0 8 5 5 10 -3 6 -1 10 5 10 6 0 8 5 5 10 -3 6 -1
10 4 10 6 0 11 14 11 30 0 17 5 30 11 30 5 0 8 4 5 9 -9 14 5 42 17 34 6 -4 8
0 4 9 -3 9 2 24 12 35 10 10 15 25 13 32 -3 9 0 11 8 6 9 -6 12 -4 8 7 -4 8 2
20 13 27 11 6 17 16 14 21 -3 6 1 10 10 10 9 0 15 6 14 13 -2 17 24 77 34 77
4 0 5 5 2 10 -3 6 -1 10 6 10 7 0 9 3 6 7 -4 3 0 14 9 24 8 9 16 23 18 31 1 8
12 31 24 52 12 20 16 34 10 31 -7 -4 -5 0 5 8 9 8 17 19 17 26 0 6 6 11 13 11
8 0 7 4 -3 10 -8 5 -10 10 -4 10 11 0 39 49 36 63 -1 4 3 7 8 7 5 0 9 3 8 8
-3 14 14 62 23 62 5 0 9 9 9 20 0 11 5 20 10 20 6 0 10 7 10 15 0 8 14 36 30
62 17 26 30 53 30 60 0 7 5 13 11 13 5 0 7 5 4 10 -3 6 -2 10 4 10 6 0 8 6 5
13 -2 7 5 24 16 37 11 13 18 30 16 37 -3 7 -1 13 5 13 6 0 7 5 4 10 -3 6 -1
10 5 10 6 0 8 5 5 10 -3 6 -1 10 5 10 6 0 8 5 5 10 -3 6 -1 10 5 10 6 0 9 4 6
9 -3 5 1 11 9 15 9 3 12 12 8 22 -4 11 -2 15 4 11 12 -7 26 20 18 33 -3 4 2
11 11 14 8 3 12 10 9 16 -3 5 -1 10 5 10 6 0 9 4 6 9 -4 5 -1 11 5 13 6 2 12
15 12 30 1 14 5 24 10 21 4 -2 8 1 8 6 2 12 5 26 9 39 1 4 2 10 1 15 0 4 4 7
10 7 5 0 8 4 4 9 -3 5 2 17 11 25 8 9 12 16 8 16 -3 0 -1 6 5 13 6 8 8 17 4
20 -3 4 -1 7 6 7 7 0 10 4 6 9 -3 5 -1 12 5 16 6 4 8 11 5 16 -4 5 -1 9 4 9 6
0 10 3 10 8 -1 4 0 9 1 12 1 3 3 12 5 20 8 38 11 45 20 52 6 5 5 8 -4 8 -11 0
-11 3 0 16 8 9 9 18 3 22 -5 4 -9 16 -9 27 0 11 -3 25 -8 31 -4 7 -10 23 -12
35 -3 13 -9 25 -15 27 -6 2 -8 8 -4 13 3 5 0 9 -7 9 -7 0 -10 3 -6 6 3 4 -1
13 -9 21 -8 8 -12 19 -9 24 4 5 2 9 -4 9 -5 0 -8 9 -6 20 2 11 -1 20 -7 20 -5
0 -8 7 -4 15 3 8 1 15 -4 15 -6 0 -10 4 -10 9 0 5 -5 22 -12 38 -6 15 -11 31
-10 36 1 4 -2 7 -6 7 -4 0 -9 10 -9 22 -1 13 -7 24 -13 26 -5 2 -10 13 -10 23
0 11 -4 17 -10 14 -5 -3 -10 0 -10 8 0 8 -7 20 -15 27 -9 7 -14 19 -11 26 3 7
-2 15 -10 18 -9 3 -12 10 -9 16 3 5 2 10 -2 10 -9 0 -39 69 -35 83 1 4 -3 7
-9 7 -5 0 -7 5 -4 10 3 6 1 10 -5 10 -6 0 -8 5 -5 10 3 6 2 10 -4 10 -10 0
-27 38 -23 53 1 4 -3 7 -9 7 -5 0 -8 4 -5 9 3 5 -1 12 -10 15 -8 3 -12 10 -9
16 3 5 1 10 -5 10 -6 0 -9 4 -5 9 3 6 -3 14 -12 20 -10 6 -14 11 -9 11 5 0 2
8 -5 17 -12 15 -12 16 1 8 12 -7 11 -3 -2 18 -10 14 -18 33 -18 42 0 8 -5 15
-11 15 -5 0 -7 5 -4 10 3 6 1 10 -5 10 -6 0 -8 5 -5 10 3 6 1 10 -5 10 -6 0
-9 4 -6 9 3 5 -1 14 -9 21 -8 7 -15 19 -15 28 0 8 -8 21 -17 29 -12 10 -13 12
-3 8 10 -4 9 -2 -2 8 -10 8 -18 21 -18 29 0 9 -7 21 -15 28 -8 7 -13 16 -10
20 3 4 -2 13 -11 20 -8 7 -13 19 -10 27 3 7 0 13 -6 13 -6 0 -8 3 -5 7 4 3 -1
12 -11 20 -11 10 -12 12 -2 8 8 -4 6 1 -4 9 -11 9 -16 16 -10 16 5 0 1 5 -9
11 -9 6 -15 14 -12 20 4 5 1 9 -4 9 -6 0 -11 7 -11 15 0 8 -9 24 -20 35 -11
11 -18 20 -15 20 3 0 -8 24 -25 53 -16 30 -27 57 -23 60 3 4 1 7 -5 7 -7 0
-12 8 -12 18 0 10 -8 28 -17 41 -9 14 -11 21 -5 17 8 -5 10 -2 6 8 -3 9 -10
16 -15 16 -4 0 -6 6 -3 13 3 8 -2 20 -10 27 -9 7 -13 17 -10 22 3 5 -2 16 -12
23 -11 8 -15 15 -10 15 6 0 -3 14 -20 32 -16 18 -20 26 -9 18 19 -13 19 -13
-1 10 -27 32 -136 242 -120 233 6 -4 5 1 -3 10 -7 9 -17 14 -22 11 -5 -3 -9 2
-9 10 0 8 -11 35 -25 59 -13 25 -21 47 -18 51 4 3 1 6 -6 6 -7 0 -10 4 -6 9 3
5 -2 17 -11 25 -11 12 -12 16 -2 16 10 0 9 3 -2 10 -8 5 -11 12 -7 16 4 4 -1
16 -10 27 -12 13 -13 17 -4 12 9 -5 5 5 -7 22 -12 17 -22 38 -22 47 0 9 -3 16
-7 16 -5 0 -17 12 -27 27 -13 17 -14 24 -5 19 8 -4 6 -1 -3 7 -10 8 -15 17
-11 20 3 4 2 7 -4 7 -6 0 -16 14 -22 30 -5 17 -14 30 -19 30 -5 0 -7 11 -4 25
2 14 0 25 -5 25 -5 0 -10 10 -10 22 -1 13 -7 24 -13 26 -5 2 -10 12 -10 23 0
10 -4 19 -8 19 -5 0 -14 16 -22 35 -8 19 -17 35 -22 35 -4 0 -8 4 -8 10 0 5
-11 26 -25 46 -14 20 -23 40 -20 44 3 5 1 10 -5 12 -5 1 -11 14 -14 28 -2 14
-5 26 -7 28 -1 1 -2 7 -3 12 0 6 -8 15 -16 20 -13 9 -13 10 0 10 13 0 13 1 0
10 -8 5 -12 10 -7 10 4 0 1 10 -8 23 -8 13 -12 27 -8 30 5 6 -12 9 -33 6 -4 0
-11 5 -15 13 -7 10 -9 10 -9 0z"/>
<path d="M10800 11061 c0 -7 -3 -10 -7 -8 -5 3 -14 -1 -21 -9 -7 -8 -10 -14
-5 -14 4 0 -2 -7 -13 -15 -10 -8 -15 -15 -10 -15 4 0 -2 -9 -15 -21 -13 -11
-17 -18 -9 -14 8 4 6 -1 -4 -9 -11 -9 -22 -16 -26 -16 -3 0 -11 -9 -18 -21
-11 -17 -11 -20 0 -13 7 4 3 -4 -10 -18 -12 -13 -19 -28 -15 -31 3 -4 0 -7 -8
-7 -12 0 -12 -2 1 -10 12 -8 12 -10 -3 -16 -9 -3 -14 -10 -11 -15 3 -5 0 -9
-5 -9 -6 0 -11 -9 -11 -20 0 -11 -4 -20 -10 -20 -5 0 -10 -9 -10 -20 0 -11 -5
-20 -11 -20 -5 0 -7 -4 -4 -10 3 -5 1 -10 -4 -10 -6 0 -11 -7 -11 -16 0 -8 -5
-12 -11 -9 -6 4 -10 1 -9 -6 3 -22 -11 -59 -23 -59 -6 0 -7 -3 -4 -7 4 -3 2
-12 -4 -20 -6 -7 -8 -13 -3 -13 5 0 3 -4 -3 -8 -7 -5 -14 -20 -15 -35 -1 -15
-8 -29 -15 -31 -7 -3 -13 -10 -13 -16 0 -6 5 -8 10 -5 6 4 -3 -16 -20 -43 -16
-27 -30 -54 -30 -60 0 -6 -9 -16 -20 -22 -11 -6 -20 -17 -20 -25 0 -8 -4 -15
-10 -15 -5 0 -7 -7 -4 -15 4 -8 -1 -17 -10 -21 -9 -3 -13 -10 -10 -15 3 -5 0
-9 -6 -9 -7 0 -10 -7 -6 -15 3 -8 2 -15 -3 -15 -8 0 -15 -18 -22 -55 -1 -5 -9
-16 -18 -23 -13 -11 -13 -12 -1 -7 12 5 12 4 -1 -7 -9 -7 -14 -19 -12 -25 3
-7 0 -13 -7 -13 -6 0 -8 -4 -5 -10 3 -5 1 -10 -4 -10 -6 0 -11 -7 -11 -15 0
-8 -4 -15 -10 -15 -5 0 -10 -7 -10 -15 0 -9 -6 -18 -14 -21 -8 -3 -12 -12 -9
-20 3 -8 0 -14 -7 -14 -6 0 -8 -4 -5 -10 3 -5 1 -10 -5 -10 -6 0 -8 -5 -4 -12
4 -6 -1 -17 -10 -24 -9 -6 -18 -21 -19 -33 -1 -12 -6 -21 -11 -21 -5 0 -6 -3
-3 -7 4 -3 2 -12 -4 -20 -6 -7 -8 -13 -4 -13 4 0 0 -12 -10 -26 -11 -18 -13
-24 -4 -19 8 5 6 -1 -4 -12 -9 -11 -14 -23 -10 -26 3 -4 1 -7 -6 -7 -7 0 -10
-4 -7 -9 3 -5 -1 -12 -10 -15 -8 -3 -12 -10 -9 -16 3 -5 1 -10 -4 -10 -6 0
-11 -7 -11 -15 0 -8 -4 -15 -10 -15 -5 0 -10 -3 -9 -7 2 -15 -13 -53 -21 -53
-8 0 -23 -38 -21 -52 1 -5 -4 -8 -9 -8 -5 0 -9 -3 -8 -7 1 -5 -3 -18 -10 -30
-7 -13 -10 -23 -6 -23 3 0 1 -6 -5 -13 -6 -8 -8 -17 -4 -20 3 -4 1 -7 -6 -7
-8 0 -11 -7 -7 -15 3 -9 -1 -18 -9 -21 -8 -4 -12 -10 -9 -15 3 -5 0 -9 -6 -9
-6 0 -9 -4 -6 -9 3 -5 -1 -14 -9 -21 -8 -7 -12 -16 -9 -21 3 -5 -3 -9 -12 -9
-10 0 -14 -3 -11 -7 4 -3 1 -13 -5 -21 -12 -13 -18 -32 -20 -59 -1 -7 -5 -13
-10 -13 -4 0 -8 -9 -8 -20 0 -11 -4 -20 -10 -20 -5 0 -10 -9 -10 -21 0 -11 -9
-34 -21 -50 -11 -16 -17 -29 -13 -29 4 0 -1 -7 -12 -15 -10 -8 -15 -15 -10
-15 6 0 1 -7 -10 -15 -10 -8 -15 -15 -10 -15 5 0 -1 -9 -14 -20 -13 -11 -19
-20 -14 -20 5 0 5 -4 -1 -8 -9 -6 -33 -61 -38 -87 -1 -5 -5 -12 -9 -15 -4 -3
-9 -15 -11 -27 -1 -12 -9 -28 -16 -37 -7 -9 -10 -16 -6 -16 5 0 -2 -9 -15 -20
-13 -11 -19 -20 -15 -20 4 0 1 -8 -8 -18 -10 -10 -14 -22 -10 -25 3 -4 0 -7
-7 -7 -7 0 -10 -3 -7 -7 4 -3 -1 -15 -10 -26 -13 -15 -14 -19 -3 -13 9 5 8 2
-2 -7 -10 -8 -15 -17 -11 -20 3 -4 1 -7 -5 -7 -6 0 -9 -6 -6 -14 3 -8 1 -17
-5 -21 -6 -3 -11 -14 -11 -25 0 -10 -7 -20 -15 -24 -8 -3 -15 -11 -15 -18 0
-9 3 -8 10 2 5 8 10 10 10 4 0 -6 -7 -17 -15 -24 -8 -7 -13 -16 -10 -20 3 -4
-2 -11 -11 -14 -9 -4 -14 -9 -11 -13 4 -3 -9 -26 -29 -50 -19 -23 -30 -43 -24
-43 7 0 6 -5 -2 -14 -7 -8 -16 -12 -20 -9 -4 2 -5 -4 -1 -13 4 -10 0 -22 -11
-30 -10 -7 -15 -17 -12 -22 3 -5 -1 -15 -9 -22 -8 -7 -12 -16 -9 -21 3 -5 0
-9 -6 -9 -6 0 -9 -4 -5 -9 3 -5 1 -12 -5 -16 -6 -4 -8 -10 -5 -15 3 -4 -2 -10
-10 -14 -8 -3 -12 -12 -9 -21 4 -10 2 -15 -7 -13 -7 2 -14 -3 -15 -9 -1 -7 -2
-18 -3 -24 0 -5 -5 -7 -11 -4 -6 3 -7 -1 -4 -9 3 -9 1 -16 -6 -16 -6 0 -9 -4
-5 -9 3 -5 -2 -16 -11 -25 -8 -9 -12 -20 -9 -26 3 -5 1 -10 -5 -10 -6 0 -9 -4
-5 -9 3 -6 -3 -14 -12 -20 -10 -6 -13 -11 -5 -11 9 0 9 -6 -3 -23 -8 -13 -12
-27 -8 -30 3 -4 2 -7 -3 -7 -5 0 -11 -10 -11 -22 -1 -13 -7 -24 -13 -26 -5 -2
-10 -12 -10 -23 0 -10 -3 -19 -8 -19 -9 0 -38 -61 -34 -73 1 -5 -2 -6 -7 -2
-6 3 -13 -5 -17 -19 -3 -13 -12 -27 -20 -30 -8 -3 -11 -12 -7 -22 4 -12 3 -15
-5 -10 -7 4 -12 1 -12 -8 0 -8 -10 -36 -22 -63 -12 -26 -21 -51 -20 -55 1 -5
-3 -8 -9 -8 -5 0 -7 -4 -4 -10 3 -5 1 -10 -6 -10 -7 0 -10 -3 -6 -6 5 -6 0
-15 -31 -49 -7 -8 -11 -19 -8 -24 3 -5 -1 -12 -10 -15 -8 -3 -12 -10 -9 -16 3
-5 1 -10 -6 -10 -7 0 -10 -3 -6 -6 3 -4 -3 -24 -14 -45 -11 -22 -17 -39 -13
-39 4 0 1 -7 -6 -15 -7 -8 -9 -15 -6 -15 4 0 1 -10 -6 -22 -7 -13 -13 -26 -14
-30 -1 -5 -3 -11 -4 -15 -1 -5 -2 -11 -1 -15 0 -5 -4 -8 -10 -8 -6 0 -8 -7 -5
-16 3 -8 2 -13 -3 -10 -5 3 -11 -8 -15 -25 -3 -17 -10 -28 -16 -24 -9 6 -14
-7 -11 -27 0 -5 -4 -8 -10 -8 -5 0 -7 -4 -4 -10 3 -5 1 -10 -5 -10 -6 0 -8 -4
-5 -10 3 -5 -3 -17 -14 -26 -10 -9 -17 -23 -14 -29 2 -7 0 -16 -6 -20 -6 -3
-11 -15 -11 -26 0 -10 -4 -19 -10 -19 -5 0 -10 -11 -10 -25 0 -14 -5 -25 -11
-25 -5 0 -7 -5 -4 -10 3 -6 -1 -13 -9 -16 -9 -3 -13 -10 -10 -15 3 -5 0 -9 -7
-9 -7 0 -10 -3 -6 -6 3 -4 -12 -33 -34 -66 -23 -33 -38 -62 -35 -65 3 -3 -2
-12 -12 -20 -10 -9 -11 -11 -2 -7 13 7 13 6 0 -10 -8 -10 -16 -28 -17 -39 -2
-12 -8 -24 -13 -25 -6 -2 -8 -8 -4 -13 3 -5 0 -9 -6 -9 -7 0 -10 -7 -6 -15 3
-9 0 -15 -9 -15 -9 0 -12 -6 -8 -17 4 -10 2 -14 -4 -10 -10 6 -27 -27 -24 -45
1 -5 -4 -8 -9 -8 -6 0 -10 -7 -10 -15 0 -8 -4 -15 -10 -15 -5 0 -10 -9 -10
-20 0 -11 -3 -20 -8 -20 -7 0 -32 -63 -34 -87 -1 -7 -5 -13 -10 -13 -4 0 -8
-9 -8 -20 0 -11 -4 -20 -10 -20 -5 0 -10 -3 -9 -7 2 -16 -14 -53 -22 -53 -5 0
-8 -3 -8 -7 3 -13 -25 -73 -33 -73 -4 0 -8 -7 -8 -15 0 -8 -4 -15 -10 -15 -5
0 -9 -3 -8 -7 3 -16 -15 -63 -24 -63 -5 0 -7 -4 -3 -9 3 -5 0 -13 -6 -16 -5
-4 -8 -13 -5 -21 3 -8 -1 -17 -9 -20 -8 -4 -15 -12 -15 -20 0 -8 -5 -14 -11
-14 -5 0 -7 -4 -4 -10 3 -5 2 -10 -4 -10 -6 0 -7 -7 -4 -17 4 -10 2 -14 -4
-10 -10 7 -28 -19 -25 -35 1 -5 -3 -8 -9 -8 -5 0 -7 -4 -4 -10 3 -5 1 -10 -5
-10 -6 0 -8 -5 -5 -10 3 -6 1 -10 -5 -10 -6 0 -9 -4 -6 -9 3 -5 -1 -14 -9 -21
-8 -7 -12 -16 -9 -21 3 -5 0 -9 -6 -9 -6 0 -9 -4 -6 -9 7 -11 -24 -73 -42 -84
-7 -5 -10 -12 -7 -18 4 -5 1 -9 -4 -9 -6 0 -11 -7 -11 -15 0 -8 -5 -15 -11
-15 -5 0 -8 -4 -4 -9 3 -6 -3 -14 -12 -20 -10 -6 -15 -11 -11 -11 4 0 -3 -16
-17 -36 -13 -20 -21 -42 -18 -51 4 -10 2 -14 -4 -10 -11 7 -26 -27 -24 -50 1
-7 -3 -13 -8 -13 -5 0 -8 -9 -6 -20 2 -11 0 -20 -6 -20 -5 0 -9 -9 -9 -20 0
-11 -4 -20 -9 -20 -5 0 -12 -14 -16 -30 -4 -17 -11 -30 -17 -30 -6 0 -9 -3 -5
-6 3 -4 -6 -23 -21 -42 -15 -20 -20 -32 -12 -27 8 4 2 -6 -14 -23 -15 -17 -25
-35 -22 -41 4 -6 2 -11 -4 -11 -6 0 -8 -4 -5 -10 3 -5 1 -10 -5 -10 -6 0 -8
-4 -5 -10 3 -5 1 -10 -4 -10 -6 0 -10 -3 -9 -7 3 -15 -14 -63 -23 -63 -5 0 -9
-9 -9 -20 0 -11 -4 -20 -10 -20 -5 0 -10 -6 -10 -14 0 -7 -10 -24 -23 -38 -13
-14 -21 -30 -19 -36 2 -7 -1 -12 -7 -12 -6 0 -11 -9 -11 -19 0 -11 -4 -21 -10
-23 -5 -1 -11 -15 -12 -31 -1 -15 -6 -27 -11 -27 -4 0 -5 -4 -2 -10 3 -5 1
-10 -4 -10 -6 0 -10 -3 -8 -8 3 -10 -35 -95 -47 -103 -4 -4 -6 -11 -2 -17 3
-5 -1 -12 -9 -16 -8 -3 -15 -12 -15 -21 0 -8 -4 -15 -10 -15 -5 0 -10 -9 -10
-19 0 -11 -3 -21 -7 -23 -10 -4 -45 -77 -50 -103 -2 -11 -8 -22 -13 -23 -6 -2
-8 -8 -4 -13 3 -5 0 -9 -6 -9 -6 0 -9 -4 -5 -10 3 -5 -3 -18 -15 -30 -22 -22
-27 -35 -7 -24 6 5 0 -8 -15 -28 -16 -20 -28 -41 -28 -47 0 -6 -5 -11 -10 -11
-6 0 -9 -3 -8 -7 2 -10 -34 -86 -45 -94 -4 -3 -9 -15 -10 -27 0 -11 -6 -20
-11 -19 -6 1 -11 -5 -11 -13 -2 -24 -17 -54 -32 -63 -7 -5 -11 -12 -8 -18 4
-5 1 -9 -5 -9 -6 0 -9 -4 -6 -9 3 -5 -1 -14 -9 -21 -8 -7 -13 -16 -10 -20 3
-5 -1 -15 -9 -23 -8 -8 -12 -17 -9 -21 4 -3 1 -6 -6 -6 -7 0 -10 -4 -6 -9 3
-5 1 -12 -5 -16 -6 -4 -8 -11 -5 -16 4 -5 1 -9 -5 -9 -6 0 -8 -4 -5 -10 3 -5
1 -10 -5 -10 -7 0 -10 -7 -6 -15 3 -8 1 -15 -5 -15 -6 0 -7 -5 -3 -12 4 -6 -1
-17 -11 -24 -10 -8 -16 -17 -12 -20 3 -3 -3 -15 -13 -27 -11 -11 -17 -24 -14
-29 3 -4 0 -8 -6 -8 -6 0 -8 -4 -5 -10 3 -5 1 -10 -5 -10 -6 0 -8 -5 -5 -10 3
-6 2 -10 -2 -10 -7 0 -35 -58 -32 -68 0 -2 -8 -10 -18 -19 -10 -8 -12 -12 -5
-8 6 3 12 2 12 -4 0 -5 -5 -11 -10 -13 -6 -2 -12 -14 -15 -27 -2 -14 -9 -27
-13 -30 -5 -3 -12 -16 -16 -28 -4 -13 -14 -30 -23 -38 -8 -9 -16 -21 -17 -28
-1 -6 -8 -23 -16 -37 -8 -14 -15 -32 -16 -40 -2 -8 -8 -16 -14 -18 -5 -2 -8
-8 -4 -13 3 -5 0 -9 -6 -9 -6 0 -8 -4 -5 -10 3 -5 1 -10 -5 -10 -6 0 -9 -4 -5
-9 3 -5 1 -12 -5 -16 -5 -3 -10 -15 -10 -26 0 -10 -4 -19 -10 -19 -5 0 -10 -9
-10 -20 0 -11 -4 -20 -10 -20 -5 0 -10 -6 -10 -14 0 -8 -7 -16 -15 -20 -8 -3
-15 -11 -15 -18 0 -9 3 -8 10 2 7 10 10 11 10 2 0 -7 -7 -15 -15 -18 -8 -4
-15 -12 -15 -19 0 -7 -5 -15 -10 -17 -6 -2 -12 -13 -13 -25 0 -12 -5 -21 -11
-20 -5 1 -10 -9 -10 -23 -1 -14 -5 -32 -10 -40 -5 -8 -6 -12 -1 -8 4 4 14 3
22 -3 10 -9 13 -8 13 2 0 11 2 11 10 -1 5 -8 10 -10 10 -5 0 6 11 10 24 10 13
0 22 -3 19 -8 -2 -4 1 -7 6 -7 6 0 11 3 11 8 0 4 30 5 66 2 36 -3 68 -2 71 3
3 4 16 1 29 -8 16 -10 24 -11 24 -4 0 7 5 8 13 3 15 -11 67 -11 85 -1 7 5 12
3 12 -4 0 -8 4 -9 13 0 10 8 17 7 25 -1 9 -9 12 -9 12 1 0 10 3 11 14 2 11 -9
16 -9 21 0 5 8 9 8 14 0 8 -12 147 -19 157 -8 4 4 13 2 21 -4 10 -9 13 -8 13
2 0 11 2 11 10 -1 7 -11 10 -11 10 -2 0 10 5 10 20 2 15 -8 20 -8 20 2 0 9 3
9 10 -2 9 -13 10 -13 10 0 0 13 1 13 10 0 9 -13 10 -13 10 0 0 13 1 13 10 0 8
-12 10 -12 10 -1 0 8 3 11 6 8 4 -3 16 -2 27 4 15 9 18 8 11 -3 -6 -11 -5 -11
9 1 13 10 17 10 17 1 0 -9 3 -10 13 -1 10 8 17 7 25 -1 9 -9 12 -9 12 1 0 7 5
9 12 5 18 -11 51 -13 69 -3 10 5 21 3 27 -3 9 -9 12 -9 12 1 0 11 3 11 15 1
12 -10 15 -10 15 0 0 10 3 10 14 1 11 -9 15 -9 19 1 4 11 6 11 6 0 1 -8 7 -10
19 -5 21 10 43 10 60 0 7 -5 12 -3 12 4 0 8 4 8 15 -1 12 -10 15 -10 15 0 0
10 3 10 15 0 12 -10 15 -10 15 1 0 9 3 10 8 4 8 -12 52 -12 70 -1 7 4 12 2 12
-5 0 -8 4 -9 13 0 10 8 17 7 25 -1 9 -9 12 -9 12 2 0 11 3 11 12 2 8 -8 17 -8
31 -1 14 8 18 8 13 0 -4 -6 -2 -11 3 -11 6 0 11 5 11 11 0 8 5 8 15 -1 12 -10
15 -10 15 0 0 10 3 10 15 0 10 -9 15 -9 15 -1 0 6 5 11 11 11 5 0 8 -3 6 -8
-3 -4 23 -7 58 -7 35 0 62 2 60 5 -2 3 5 6 15 6 10 0 16 -4 14 -8 -3 -4 0 -8
5 -8 6 0 11 5 11 11 0 8 5 8 15 -1 12 -10 15 -10 15 0 0 10 3 10 15 0 11 -9
15 -9 15 -1 0 8 5 9 18 2 13 -7 23 -6 30 1 9 9 12 9 12 -1 0 -10 3 -11 13 -2
10 8 17 7 25 -1 9 -9 12 -9 12 1 0 7 5 9 12 5 18 -11 51 -13 69 -3 10 5 21 3
27 -3 9 -9 12 -9 12 1 0 11 3 11 15 1 12 -10 15 -10 15 0 0 10 3 10 14 1 11
-9 15 -9 19 1 4 11 6 11 6 0 1 -8 7 -10 19 -5 21 10 43 10 60 0 7 -5 12 -3 12
4 0 8 4 9 13 0 10 -8 17 -7 25 1 9 9 12 9 12 -1 0 -10 3 -11 13 -2 10 8 17 7
25 -1 6 -6 46 -11 94 -11 46 0 91 -4 102 -9 14 -7 16 -7 11 2 -6 9 -2 9 14 1
16 -9 21 -9 21 0 0 9 3 9 14 0 10 -8 16 -9 21 -1 4 7 12 7 26 0 13 -7 19 -7
19 0 0 5 5 10 11 10 5 0 7 -6 3 -12 -5 -9 -2 -9 9 1 10 7 17 9 17 3 0 -12 18
-11 39 2 8 5 16 4 21 -4 5 -9 9 -9 14 -1 4 6 12 9 17 6 5 -4 9 -1 9 4 0 6 5
11 11 11 5 0 7 -5 3 -12 -4 -6 -3 -8 3 -5 5 3 33 7 62 8 28 2 54 6 57 11 3 4
13 4 23 -1 10 -6 23 -6 31 -1 8 5 22 4 32 -1 12 -7 18 -6 18 1 0 6 5 8 10 5 6
-3 10 -1 10 5 0 7 7 9 17 6 10 -4 14 -4 11 0 -4 4 4 15 17 26 14 11 25 26 25
34 0 8 4 13 8 10 5 -3 17 9 27 27 10 18 25 36 32 40 7 5 11 13 7 18 -3 6 2 17
12 24 11 8 15 15 10 15 -6 0 -1 7 10 16 10 8 12 13 4 9 -9 -4 -8 -1 3 8 10 9
18 19 18 24 -1 16 10 43 19 43 4 0 11 11 14 25 4 14 11 25 17 25 6 0 7 5 4 10
-3 6 -1 10 5 10 6 0 9 4 6 8 -3 5 4 19 15 31 11 12 17 26 14 31 -3 6 -1 10 5
10 6 0 8 5 5 10 -3 6 -1 10 5 10 7 0 10 7 6 15 -3 8 -1 15 5 15 6 0 8 4 4 9
-3 5 1 16 9 24 8 8 12 17 9 21 -3 3 0 12 6 20 7 8 10 20 6 26 -3 5 -1 10 4 10
6 0 11 11 11 25 0 14 4 25 8 25 5 0 15 18 22 40 7 21 17 37 21 34 5 -3 9 4 9
15 0 12 5 21 11 21 5 0 8 4 5 9 -4 5 -1 11 4 13 6 2 12 13 13 25 0 12 5 19 9
17 4 -3 10 7 14 21 3 14 10 25 16 25 5 0 6 5 3 10 -3 6 -3 10 2 10 4 0 14 15
22 32 8 18 23 44 35 58 18 20 18 22 2 10 -18 -14 -18 -14 -6 7 8 12 17 21 21
20 4 -1 8 3 9 8 1 6 9 18 17 28 9 9 12 17 7 17 -5 0 -1 5 9 11 9 5 17 17 17
24 0 8 4 15 9 15 5 0 8 8 7 17 -2 9 6 25 16 35 10 10 18 24 18 31 0 8 -4 7
-10 -3 -5 -8 -10 -10 -10 -4 0 6 7 17 15 24 8 7 15 21 15 32 0 10 4 17 9 14 5
-4 7 3 4 14 -3 12 0 20 8 20 7 0 9 3 6 7 -4 3 -2 12 4 20 6 7 8 13 3 13 -4 0
1 7 12 16 10 8 12 13 4 9 -9 -4 -8 -1 3 8 10 9 19 19 19 24 3 23 11 43 18 43
5 0 11 13 15 29 3 16 13 35 21 41 7 7 11 16 8 21 -3 5 0 9 5 9 6 0 11 7 11 15
0 8 5 15 12 15 6 0 9 3 5 6 -8 8 70 121 91 134 10 5 14 10 10 10 -4 0 4 11 17
25 14 13 25 28 25 34 0 5 9 13 20 16 11 4 18 10 15 15 -5 8 23 25 38 22 4 -1
7 2 7 6 0 13 61 14 76 1 11 -9 14 -9 14 0 0 8 6 9 18 3 9 -5 22 -8 27 -6 6 2
21 -12 35 -31 14 -19 30 -35 37 -35 7 0 10 -7 6 -17 -3 -10 -3 -15 2 -11 8 8
55 -40 55 -56 0 -5 9 -16 20 -26 21 -18 73 -116 73 -137 0 -7 4 -13 9 -13 5 0
8 -6 7 -12 -2 -18 12 -58 20 -58 4 0 7 -8 7 -17 1 -10 3 -25 5 -33 4 -14 8
-20 36 -54 6 -7 9 -17 6 -20 -4 -3 -1 -6 5 -6 7 0 12 -7 12 -15 0 -8 5 -15 10
-15 6 0 10 -11 10 -25 0 -14 5 -25 11 -25 5 0 7 -4 4 -10 -3 -5 -1 -10 5 -10
6 0 8 -4 5 -10 -3 -5 -1 -10 4 -10 6 0 11 -9 11 -19 0 -10 7 -22 16 -25 8 -3
13 -10 10 -15 -7 -11 53 -141 65 -141 5 0 9 -7 9 -15 0 -9 6 -18 14 -21 8 -3
12 -12 9 -20 -3 -8 0 -14 7 -14 6 0 8 -5 5 -10 -4 -6 -1 -17 5 -25 7 -8 9 -15
4 -15 -5 0 -2 -6 7 -13 9 -7 17 -15 18 -19 1 -5 4 -21 7 -38 4 -16 10 -30 15
-30 5 0 9 -9 9 -20 0 -11 5 -20 10 -20 6 0 10 -7 10 -15 0 -8 5 -15 11 -15 5
0 8 -4 4 -9 -3 -6 1 -13 9 -18 8 -4 16 -19 18 -33 2 -14 9 -24 16 -22 8 1 11
-2 8 -7 -4 -5 -2 -12 4 -16 6 -4 8 -10 5 -15 -3 -4 2 -10 10 -14 8 -3 15 -13
15 -23 0 -9 10 -28 23 -41 12 -14 15 -22 7 -18 -9 5 -8 2 2 -7 10 -8 15 -17
11 -20 -3 -4 -1 -7 5 -7 7 0 12 -5 12 -11 0 -7 9 -20 21 -30 11 -9 20 -20 20
-23 -3 -20 0 -26 9 -21 6 4 9 3 8 -2 -3 -13 25 -83 34 -83 4 0 7 -3 7 -7 -1
-5 0 -11 1 -15 3 -9 3 -9 14 -57 5 -19 14 -41 22 -48 7 -8 11 -20 8 -27 -3 -8
5 -21 18 -30 12 -9 18 -16 13 -16 -6 0 -3 -5 5 -10 8 -5 15 -13 16 -17 1 -17
28 -63 36 -63 5 0 7 -4 4 -9 -4 -5 0 -12 6 -14 10 -4 10 -6 0 -6 -10 -1 -10
-5 2 -17 9 -8 14 -20 11 -25 -4 -5 -1 -9 5 -9 7 0 10 -6 8 -12 -3 -7 1 -19 9
-26 7 -8 10 -18 7 -24 -4 -6 -2 -8 4 -4 6 3 16 -7 24 -24 7 -16 16 -30 20 -30
5 0 8 -7 8 -16 0 -9 5 -12 13 -8 6 4 9 3 4 -1 -4 -5 0 -19 8 -32 9 -13 14 -27
11 -32 -3 -5 3 -16 14 -26 11 -10 17 -22 14 -26 -3 -5 0 -9 7 -9 7 0 9 -3 6
-7 -4 -3 1 -12 11 -20 9 -8 11 -12 5 -8 -7 3 -13 1 -13 -4 0 -6 5 -11 11 -11
5 0 8 -4 5 -9 -3 -5 1 -12 10 -15 8 -3 13 -10 10 -15 -8 -13 14 -61 28 -61 6
0 4 -5 -4 -10 -11 -7 -11 -10 -2 -10 7 0 10 -4 7 -10 -3 -6 -2 -10 3 -10 9 0
25 -37 23 -53 -1 -4 5 -6 11 -5 7 2 12 -3 10 -9 -1 -7 3 -13 9 -13 5 0 7 -4 4
-10 -3 -5 -1 -10 5 -10 6 0 8 -4 5 -10 -3 -5 -1 -10 5 -10 6 0 8 -4 5 -10 -3
-6 -1 -10 4 -10 6 0 11 -7 11 -15 0 -8 4 -15 9 -15 5 0 12 -11 15 -25 4 -14
11 -23 16 -20 5 3 7 -3 5 -14 -2 -11 3 -22 11 -25 9 -3 13 -10 9 -15 -3 -5 3
-16 13 -23 11 -7 22 -23 26 -36 4 -12 11 -20 16 -17 8 5 34 -57 35 -80 0 -5 6
-14 12 -20 7 -5 14 -22 15 -37 1 -15 6 -24 10 -22 7 4 11 -26 7 -53 0 -3 6
-10 15 -15 9 -5 14 -13 11 -19 -4 -5 -1 -9 5 -9 6 0 8 -4 5 -10 -3 -5 -2 -10
3 -10 5 0 15 -12 22 -27 8 -16 26 -41 40 -57 14 -16 19 -26 12 -21 -8 4 -2
-11 12 -33 14 -22 22 -43 19 -46 -4 -3 -1 -6 5 -6 6 0 9 -7 6 -15 -4 -8 1 -17
10 -21 9 -3 13 -10 10 -16 -3 -5 2 -19 13 -30 10 -13 12 -18 4 -13 -9 5 -6 -4
7 -22 12 -17 19 -33 15 -37 -3 -3 -1 -6 6 -6 7 0 9 -5 6 -10 -3 -6 -1 -10 5
-10 7 0 10 -7 6 -15 -3 -8 -1 -15 5 -15 6 0 7 -4 4 -10 -3 -5 -2 -10 3 -10 6
0 13 -7 16 -16 3 -9 2 -12 -4 -9 -6 4 -1 -12 11 -34 12 -23 22 -52 23 -65 0
-13 5 -24 11 -23 5 1 10 -4 11 -10 1 -7 3 -16 4 -20 1 -5 2 -11 1 -16 0 -4 4
-7 10 -7 5 0 7 -4 4 -10 -3 -5 -2 -10 4 -10 6 0 8 -7 5 -15 -4 -8 -1 -15 5
-15 6 0 11 -6 11 -14 0 -7 10 -24 23 -38 22 -25 29 -41 30 -65 0 -7 4 -13 9
-13 4 0 19 -25 33 -56 14 -32 33 -63 43 -71 10 -9 11 -12 2 -7 -8 4 -4 -4 10
-19 35 -35 70 -83 70 -94 0 -5 12 -20 27 -34 14 -13 23 -17 19 -9 -4 8 1 5 12
-7 14 -16 22 -19 31 -10 8 8 11 8 11 -2 0 -11 3 -11 16 0 13 10 17 10 24 0 5
-9 21 -12 44 -9 20 2 36 0 36 -5 0 -4 4 -6 9 -3 5 4 11 0 14 -6 3 -10 7 -10
20 1 14 11 17 11 17 0 0 -12 2 -12 9 0 6 9 11 10 15 3 4 -6 13 -9 21 -5 8 3
15 0 15 -6 0 -6 5 -11 11 -11 5 0 8 4 4 9 -3 6 6 8 22 5 63 -12 99 -11 121 2
15 10 22 11 22 3 0 -8 4 -8 15 1 11 9 15 9 15 1 0 -8 6 -9 18 -3 9 5 26 8 37
8 11 -1 23 4 27 9 5 6 8 5 8 -2 0 -7 5 -13 11 -13 5 0 8 4 5 9 -3 5 10 7 29 4
24 -3 35 -1 35 8 0 8 7 6 20 -6 11 -10 20 -13 20 -7 0 7 5 12 11 12 5 0 8 -3
6 -7 -6 -9 117 -7 139 1 7 3 16 1 19 -5 4 -5 11 -7 16 -4 5 4 9 1 9 -5 0 -8 6
-8 20 0 15 8 20 8 20 -1 0 -8 4 -8 15 1 11 9 15 9 15 1 0 -9 5 -9 20 -1 15 8
20 8 20 -1 0 -8 4 -8 15 1 8 7 15 8 15 3 0 -5 9 -9 20 -9 11 0 20 4 20 9 0 4
6 5 13 0 6 -4 19 -9 27 -11 22 -4 692 -3 715 1 11 3 24 2 28 0 7 -4 435 -5
480 -1 9 1 17 6 17 11 0 5 6 5 13 -2 10 -8 18 -7 32 3 12 8 35 11 68 8 28 -3
48 -1 44 4 -3 5 6 9 19 9 13 0 24 -4 24 -9 0 -5 7 -3 15 4 9 7 18 10 22 6 3
-3 0 -6 -7 -6 -7 0 -10 -3 -7 -6 4 -4 13 -1 22 6 9 7 15 8 15 2 0 -11 18 -11
38 1 7 5 12 3 12 -4 0 -10 3 -10 11 -2 6 6 18 9 25 6 8 -3 14 0 14 6 0 6 5 11
11 11 5 0 8 -3 6 -7 -3 -5 19 -8 49 -8 30 0 54 3 54 8 0 4 5 7 11 7 5 0 7 -4
4 -10 -4 -6 2 -7 17 -1 26 10 27 44 3 71 -8 9 -12 20 -8 23 3 4 1 7 -6 7 -7 0
-10 4 -6 9 3 5 -2 16 -10 24 -11 12 -12 17 -2 20 9 4 9 6 -1 6 -7 1 -10 6 -7
11 3 6 1 10 -5 10 -6 0 -8 5 -5 10 3 6 1 10 -5 10 -6 0 -8 5 -5 10 3 6 1 10
-4 10 -6 0 -11 8 -11 18 0 11 -9 27 -20 37 -11 10 -18 20 -15 23 2 3 -3 11
-13 19 -10 9 -11 12 -2 7 8 -4 5 4 -8 18 -12 13 -19 28 -15 31 3 4 -2 7 -13 7
-14 0 -16 2 -6 9 11 7 11 9 -1 14 -10 3 -13 14 -10 31 4 17 1 26 -8 26 -7 0
-10 3 -6 6 3 4 -1 13 -9 21 -8 8 -12 19 -9 24 4 5 1 9 -5 9 -6 0 -8 5 -5 10 3
5 1 10 -5 10 -6 0 -8 5 -5 10 3 6 2 10 -3 10 -5 0 -17 18 -27 40 -10 22 -22
40 -27 40 -4 0 -8 9 -8 21 0 12 -4 18 -11 13 -7 -4 -10 -1 -7 7 3 8 -2 20 -11
27 -9 8 -11 11 -4 7 9 -4 8 3 -2 21 -8 15 -12 31 -9 36 3 4 0 8 -7 8 -7 0 -9
8 -6 21 3 12 0 22 -8 25 -7 3 -16 16 -19 30 -4 13 -11 24 -17 24 -6 0 -7 5 -4
10 3 6 1 10 -4 10 -6 0 -11 9 -11 21 0 11 -5 17 -10 14 -6 -3 -10 3 -10 14 0
12 -4 21 -10 21 -5 0 -10 6 -10 14 0 8 -5 18 -12 22 -7 5 -8 2 -3 -7 5 -8 4
-11 -1 -6 -5 5 -9 12 -10 15 -3 27 -18 62 -26 62 -5 0 -6 5 -3 10 3 6 -1 13
-10 16 -13 6 -14 8 -3 15 10 7 11 9 0 9 -7 0 -10 5 -7 10 3 6 1 10 -5 10 -6 0
-8 5 -5 10 4 6 -1 22 -10 37 -9 14 -12 22 -5 18 9 -6 9 -3 1 14 -7 11 -16 21
-20 21 -5 0 -7 10 -3 22 3 14 2 19 -6 14 -7 -4 -12 -1 -12 8 0 9 -4 16 -9 16
-6 0 -8 9 -6 20 2 11 0 18 -4 16 -5 -3 -17 15 -27 39 -10 25 -22 45 -26 45 -4
0 -8 7 -8 16 0 9 -5 12 -12 8 -7 -5 -9 -2 -5 9 3 8 -1 21 -9 27 -8 7 -14 19
-14 27 0 7 -7 25 -16 38 -9 14 -14 25 -10 25 5 0 -9 19 -39 54 -5 6 -12 20
-13 31 -2 11 -8 22 -13 23 -5 2 -7 8 -3 13 3 5 1 9 -5 9 -6 0 -8 7 -5 15 4 8
1 22 -6 30 -7 8 -9 15 -5 15 3 0 -3 15 -14 33 -11 19 -18 37 -14 40 3 4 1 7
-6 7 -7 0 -10 4 -7 8 3 5 -4 16 -15 26 -12 9 -18 23 -16 30 3 7 -3 19 -13 26
-11 8 -17 17 -14 22 3 4 0 8 -6 8 -6 0 -8 5 -5 10 3 6 1 10 -5 10 -6 0 -8 5
-5 10 3 5 1 10 -5 10 -6 0 -8 5 -5 10 3 6 1 10 -5 10 -6 0 -8 5 -5 10 3 6 1
10 -5 10 -6 0 -8 5 -5 10 3 6 1 10 -4 10 -6 0 -11 9 -11 20 0 10 -6 25 -13 32
-8 7 -12 20 -9 30 2 10 -1 18 -7 18 -6 0 -11 7 -11 15 0 8 -4 15 -10 15 -5 0
-7 6 -4 14 3 7 -2 20 -10 29 -9 9 -16 20 -16 26 0 6 -5 11 -12 11 -6 0 -9 3
-5 6 3 3 -5 24 -19 45 -13 21 -24 43 -24 49 0 5 -5 10 -12 10 -9 0 -9 3 0 12
10 10 7 15 -10 25 -13 7 -18 12 -11 13 7 0 2 19 -13 51 -14 27 -22 54 -19 60
4 5 1 9 -4 9 -6 0 -11 6 -11 14 0 8 -7 16 -15 20 -8 3 -15 12 -15 21 0 8 -4
15 -9 15 -5 0 -12 7 -15 16 -3 9 -2 12 5 8 6 -3 -1 12 -15 34 -14 22 -22 43
-19 46 4 3 1 6 -5 6 -7 0 -12 9 -12 20 0 11 -6 23 -13 26 -7 2 -13 13 -14 24
-1 10 -11 28 -23 40 -11 11 -18 25 -15 30 4 6 1 10 -4 10 -6 0 -10 3 -9 8 3
14 -14 42 -23 36 -5 -3 -9 -2 -8 3 2 9 -5 30 -26 78 -8 16 -11 33 -9 37 3 4 0
8 -6 8 -7 0 -10 7 -6 15 3 8 1 15 -5 15 -6 0 -7 4 -4 10 3 5 2 10 -3 10 -5 0
-9 7 -10 15 -1 8 -3 22 -4 30 -1 8 -5 15 -10 15 -4 0 -8 9 -8 20 0 11 -5 20
-11 20 -5 0 -7 5 -4 10 3 6 0 13 -8 16 -9 3 -18 16 -21 30 -4 13 -11 24 -17
24 -6 0 -8 4 -5 9 3 5 -1 12 -10 15 -8 3 -12 10 -9 16 3 6 -4 24 -16 42 -13
17 -16 28 -8 23 12 -7 12 -6 -1 11 -8 10 -19 22 -25 26 -7 5 -7 8 0 8 6 0 4 4
-3 8 -7 5 -14 18 -17 30 -2 12 -11 29 -19 38 -9 8 -16 22 -16 30 0 8 -4 13 -9
10 -5 -3 -14 8 -21 24 -7 17 -16 30 -21 30 -5 0 -8 3 -8 8 3 18 -2 33 -10 28
-4 -3 -6 6 -3 19 3 16 0 25 -9 25 -7 0 -9 3 -6 7 4 3 2 12 -4 20 -9 10 -8 13
2 13 9 1 8 5 -5 15 -11 8 -16 15 -11 15 5 0 4 5 -2 11 -6 6 -9 18 -6 25 3 8 0
14 -7 14 -6 0 -9 4 -6 9 3 5 -1 12 -10 15 -8 3 -12 11 -9 16 4 6 1 17 -5 25
-7 8 -9 15 -4 15 5 0 5 4 -1 8 -21 15 -59 65 -45 58 9 -5 8 -2 -2 7 -10 8 -15
17 -11 20 3 4 1 7 -6 7 -7 0 -9 4 -6 10 3 6 2 10 -3 10 -6 0 -15 12 -21 28
-14 34 -45 89 -64 110 -8 9 -18 27 -21 40 -4 12 -12 22 -17 22 -6 0 -8 4 -5 9
4 5 2 11 -4 13 -5 1 -11 15 -12 31 -1 15 -5 27 -9 27 -3 0 -6 6 -7 13 -2 33
-13 60 -28 72 -13 9 -14 14 -5 20 9 5 8 13 -7 29 -10 11 -25 35 -33 53 -7 17
-17 29 -21 27 -4 -3 -5 2 -2 10 4 9 -1 18 -10 22 -9 3 -14 10 -11 14 3 5 1 11
-5 15 -6 4 -8 11 -5 16 4 5 1 9 -5 9 -6 0 -8 5 -5 10 3 6 1 10 -6 10 -7 0 -9
3 -6 7 4 3 1 13 -6 21 -10 13 -9 14 2 7 8 -5 3 7 -12 27 -15 19 -24 38 -20 41
3 4 1 7 -5 7 -7 0 -12 7 -12 15 0 8 -4 15 -10 15 -5 0 -10 9 -10 20 0 11 -4
20 -10 20 -5 0 -10 9 -10 21 0 11 -4 17 -10 14 -5 -3 -10 3 -10 14 0 12 -4 21
-10 21 -5 0 -10 9 -10 21 0 13 -4 18 -12 13 -8 -5 -9 0 -6 14 4 12 2 22 -4 22
-5 0 -6 5 -3 10 3 6 1 10 -5 10 -7 0 -9 7 -6 16 4 10 2 13 -6 8 -8 -5 -9 -2
-5 9 4 10 2 17 -4 17 -6 0 -9 7 -5 15 3 8 1 15 -4 15 -6 0 -9 3 -8 8 3 14 -14
62 -23 62 -5 0 -6 7 -3 15 4 8 1 15 -6 15 -6 0 -8 5 -5 10 3 6 1 10 -5 10 -6
0 -8 5 -5 10 3 6 1 10 -5 10 -6 0 -8 5 -5 10 3 6 1 10 -4 10 -6 0 -11 4 -11 9
0 4 -18 40 -39 80 -22 39 -38 71 -35 71 2 0 -10 22 -26 50 -16 27 -26 50 -22
50 4 0 -1 5 -11 11 -9 6 -15 14 -12 20 4 5 1 9 -5 9 -6 0 -8 5 -5 10 3 6 -1
13 -9 16 -9 3 -13 10 -10 15 3 5 0 9 -6 9 -7 0 -10 7 -6 15 3 8 2 15 -3 15 -8
0 -19 27 -17 41 1 3 -5 13 -12 22 -8 9 -10 22 -6 28 5 8 3 9 -6 4 -10 -6 -12
-4 -7 8 3 10 2 17 -4 17 -6 0 -7 5 -4 10 3 6 1 10 -4 10 -6 0 -11 9 -11 20 0
11 -5 20 -11 20 -5 0 -7 4 -4 10 3 6 1 10 -5 10 -6 0 -8 5 -5 10 3 6 1 10 -5
10 -6 0 -8 5 -5 10 3 6 1 10 -5 10 -6 0 -8 5 -5 10 3 6 2 10 -3 10 -9 0 -25
37 -23 53 1 4 -4 7 -10 7 -6 0 -9 6 -6 14 3 8 -1 17 -9 20 -9 3 -12 10 -9 16
3 5 1 10 -6 10 -7 0 -10 3 -6 6 3 4 -1 13 -9 21 -8 8 -12 19 -9 24 4 5 1 9 -5
9 -6 0 -8 5 -5 10 3 6 1 10 -4 10 -6 0 -11 9 -11 19 0 11 -3 21 -7 23 -5 2
-19 18 -32 37 -13 19 -17 31 -10 27 8 -4 6 -1 -3 7 -10 8 -15 17 -11 20 3 4 2
7 -4 7 -10 0 -38 49 -35 63 1 4 -2 7 -6 7 -4 0 -9 13 -10 29 -2 21 4 34 20 45
12 9 18 16 13 16 -14 0 -38 57 -30 70 3 5 1 10 -5 10 -7 0 -10 7 -6 15 3 8 1
15 -3 15 -5 0 -12 7 -15 16 -4 10 -2 13 7 9 6 -4 2 2 -10 13 -12 11 -19 22
-16 26 4 3 1 6 -5 6 -7 0 -12 6 -12 14 0 7 -7 19 -15 26 -9 7 -13 15 -11 17 4
4 -13 28 -41 58 -7 7 -9 15 -6 19 4 3 1 6 -6 6 -7 0 -9 5 -6 10 3 6 2 10 -2
10 -5 0 -10 12 -11 27 -1 15 -6 30 -12 33 -5 3 -10 20 -12 38 -1 18 -6 32 -10
32 -4 0 -8 9 -8 20 0 11 -5 20 -11 20 -5 0 -7 5 -4 10 3 6 -1 10 -9 10 -9 0
-16 7 -16 15 0 8 -5 15 -11 15 -6 0 -8 7 -5 16 3 8 2 13 -2 11 -7 -5 -33 18
-32 28 1 17 -13 54 -20 50 -5 -3 -7 3 -6 12 3 16 -6 37 -68 161 -11 23 -25 42
-29 42 -5 0 -5 5 -2 10 3 6 1 10 -5 10 -6 0 -8 5 -5 11 4 5 -2 18 -14 28 -11
10 -18 21 -15 24 3 3 -1 20 -10 38 -9 18 -16 38 -16 46 0 7 -4 13 -10 13 -5 0
-10 7 -10 15 0 8 -6 15 -12 15 -9 0 -8 4 2 10 10 6 11 10 3 10 -12 0 -52 67
-49 82 0 4 -8 14 -19 23 -11 9 -13 14 -5 10 9 -4 8 -1 -3 8 -10 8 -19 24 -22
35 -2 11 -9 30 -15 41 -6 12 -7 21 -3 21 4 0 1 5 -7 10 -11 7 -12 10 -2 10 10
0 9 4 -3 16 -9 9 -19 29 -22 45 -3 16 -10 29 -15 29 -5 0 -6 5 -3 10 3 6 1 10
-5 10 -6 0 -8 5 -5 10 3 6 1 10 -4 10 -6 0 -11 7 -11 15 0 8 -5 15 -11 15 -5
0 -7 5 -4 10 3 6 1 10 -5 10 -6 0 -9 4 -6 9 3 5 -1 12 -10 15 -8 3 -13 10 -10
15 3 5 -1 14 -9 21 -8 7 -15 17 -15 23 0 6 -8 19 -17 30 -13 15 -14 18 -3 12
10 -6 10 -2 -3 12 -10 11 -20 31 -22 44 -3 13 -9 25 -15 27 -6 2 -8 8 -4 13 3
5 0 9 -6 9 -6 0 -8 5 -5 10 3 6 1 10 -4 10 -6 0 -11 7 -11 15 0 8 -9 24 -20
35 -11 11 -20 29 -20 40 0 11 -5 20 -11 20 -6 0 -9 6 -6 14 3 8 1 16 -4 18 -6
2 -12 12 -14 23 -2 11 -4 22 -5 25 -1 3 -2 8 -1 13 0 4 -3 7 -7 7 -7 0 -11 15
-14 57 -1 7 -7 14 -14 17 -8 3 -11 12 -7 22 4 12 3 15 -5 10 -7 -4 -12 -1 -12
6 0 8 -9 20 -19 28 -11 7 -18 17 -15 21 2 4 -2 14 -10 21 -7 8 -17 24 -20 36
-4 12 -11 20 -16 17 -5 -3 -7 4 -5 15 2 11 0 20 -5 20 -9 0 -25 39 -22 53 1 4
-3 7 -9 7 -5 0 -7 5 -4 10 3 6 1 10 -5 10 -6 0 -8 5 -5 10 3 6 1 10 -5 10 -6
0 -8 5 -5 10 3 6 1 10 -5 10 -6 0 -9 4 -6 9 3 5 -1 12 -10 15 -8 3 -12 10 -9
16 3 5 1 10 -5 10 -6 0 -9 4 -6 8 3 5 -3 14 -14 22 -10 7 -16 19 -13 27 3 7 0
13 -7 13 -6 0 -8 5 -5 10 3 6 1 10 -4 10 -6 0 -10 3 -9 8 1 4 -3 17 -10 28 -6
12 -8 24 -5 28 3 3 1 6 -6 6 -7 0 -9 5 -6 10 3 6 2 10 -2 10 -5 0 -10 12 -11
27 -1 15 -7 30 -13 34 -6 3 -10 9 -10 13 3 20 0 26 -9 21 -6 -4 -9 -3 -8 2 4
12 -25 73 -34 73 -5 0 -8 7 -8 15 0 8 -5 15 -11 15 -5 0 -7 5 -4 10 3 6 1 10
-6 10 -7 0 -9 3 -6 6 4 4 -1 14 -11 23 -17 16 -22 30 -25 63 -1 9 -5 14 -9 12
-7 -5 -12 13 -11 44 1 6 -3 12 -8 12 -5 0 -9 9 -9 20 0 11 -5 20 -12 20 -6 0
-9 3 -5 6 6 6 -41 76 -56 82 -4 2 -5 8 -1 13 3 5 0 9 -6 9 -6 0 -8 5 -5 10 3
6 1 10 -5 10 -6 0 -8 5 -5 10 3 6 1 10 -5 10 -6 0 -9 4 -6 9 4 5 2 11 -4 13
-5 1 -11 15 -12 31 -1 15 -6 27 -11 27 -4 0 -5 5 -2 10 3 6 1 10 -5 10 -6 0
-8 5 -5 10 3 6 2 10 -4 10 -5 0 -8 9 -6 20 2 11 -1 20 -6 20 -6 0 -15 14 -20
30 -6 17 -15 30 -21 30 -5 0 -6 5 -3 10 3 6 2 10 -3 10 -11 0 -72 130 -72 153
0 9 -4 17 -10 17 -5 0 -7 6 -4 13 3 8 -2 20 -11 27 -8 7 -15 21 -15 31 0 11
-4 19 -10 19 -5 0 -10 7 -10 15 0 8 -4 15 -10 15 -5 0 -10 7 -10 16 0 8 -4 13
-8 10 -5 -3 -15 10 -22 29 -8 19 -17 35 -22 35 -4 0 -8 9 -8 20 0 11 -5 20
-11 20 -6 0 -9 9 -6 20 3 11 1 20 -5 20 -5 0 -6 5 -3 10 3 6 1 10 -5 10 -6 0
-8 5 -5 10 3 6 1 10 -5 10 -7 0 -10 7 -6 15 3 8 1 15 -5 15 -6 0 -9 7 -5 15 3
8 1 15 -5 15 -6 0 -8 4 -5 9 3 5 -1 12 -10 15 -9 4 -14 9 -11 13 8 7 -40 53
-55 53 -6 0 -9 3 -5 6 3 4 -3 14 -14 23 -11 9 -21 26 -22 38 0 12 -3 20 -6 18
-2 -3 -12 5 -22 17 -11 11 -19 16 -19 9z"/>
</g>
</svg>
